<svg width="188" height="341" viewBox="0 0 188 341" fill="none" xmlns="http://www.w3.org/2000/svg">
<g clip-path="url(#clip0_292_822)">
<path d="M135.231 133.327C134.703 132.341 134.045 131.487 133.188 130.698C135.955 127.346 137.141 123.007 136.483 118.669C135.494 112.424 131.672 107.165 125.742 106.376C124.951 106.245 122.645 106.245 122.118 105.39C122.052 105.259 122.052 105.062 122.118 104.93C123.172 102.038 119.153 97.3709 114.343 96.0563C110.719 95.136 107.161 95.2675 104.261 96.5164H104.196C102.416 97.3052 100.308 98.0283 100.044 97.1737C99.5831 95.3989 96.2227 94.5444 92.994 95.3989C89.7653 96.1877 87.7226 98.2255 86.4048 100.986C86.2071 101.446 85.5482 101.184 84.0327 101.644C79.2885 103.024 77.0481 111.307 80.3427 115.251C80.4745 115.448 80.4745 117.157 80.5404 118.143C80.6722 121.955 82.1218 125.571 84.6916 128.397C84.4939 128.792 84.2303 129.186 84.0986 129.581C81.1334 137.403 87.3272 143.911 94.1141 142.859C94.3777 142.793 94.6412 142.793 94.8389 142.727C95.4978 142.53 96.2226 142.925 96.4862 143.516C99.1878 149.761 106.436 152.653 112.696 149.892C115.199 148.841 117.242 146.934 118.56 144.568C118.692 144.305 119.021 144.239 119.219 144.371C119.219 144.371 119.219 144.371 119.285 144.371L119.812 144.699C121.327 145.685 123.041 146.277 124.82 146.474C130.42 147 135.296 143.45 136.021 138.52C136.021 138.389 136.087 138.257 136.087 138.126C136.087 137.929 136.153 137.732 136.153 137.534C136.153 137.469 136.153 137.469 136.153 137.403C136.153 137.271 136.153 137.074 136.153 136.943C136.153 136.877 136.153 136.877 136.153 136.811C136.153 136.68 136.153 136.483 136.087 136.351V136.285C136.087 136.088 136.021 135.957 136.021 135.825C135.955 135.628 136.087 135.431 136.219 135.299C136.351 135.168 136.483 135.037 136.614 134.971C137.141 134.708 136.285 133.327 135.231 133.327Z" fill="#2B2929"/>
<path d="M121.591 122.613C120.734 120.838 115.924 120.312 114.409 120.444C114.145 119.655 113.552 119.129 112.432 118.866C109.994 118.34 108.413 120.969 108.149 122.941C108.149 123.007 108.149 123.073 108.149 123.139C106.502 123.336 104.854 123.139 103.339 122.613C102.153 122.153 101.033 121.561 100.044 120.707C98.3311 119.195 96.2225 118.077 93.7845 117.748C88.1837 117.091 82.9783 120.641 81.5946 126.031C77.7728 129.186 77.2457 134.708 80.3426 138.52C83.3736 142.267 88.9086 142.859 92.6644 139.901C93.2574 139.901 93.8504 139.835 94.4435 139.704C95.2342 139.572 96.0908 139.901 96.6179 140.492C97.4745 141.61 98.7923 143.253 99.4512 144.305C100.769 146.211 103.009 147.329 105.316 147.855C106.238 148.052 107.161 148.183 108.149 148.118C109.928 147.92 111.509 147.066 112.827 145.817C114.145 144.634 115.133 143.188 116.188 141.741C116.649 141.15 117.11 140.492 117.769 140.229C118.56 139.967 124.49 139.309 120.075 132.407C119.68 131.881 124.885 129.449 121.591 122.613Z" fill="#190D04"/>
<path d="M142.227 124.529C143.207 115.542 136.846 107.48 128.019 106.522C119.192 105.564 111.242 112.071 110.261 121.058C109.281 130.044 115.642 138.106 124.469 139.064C133.296 140.023 141.246 133.515 142.227 124.529Z" fill="#2B2929"/>
<path d="M137.932 112.884C137.8 112.818 137.734 112.753 137.8 112.687C138.393 111.044 138.327 109.729 137.668 108.677C136.153 106.245 131.804 105.653 128.575 105.193C126.533 104.93 125.083 104.733 124.688 104.142C124.622 104.01 124.556 103.879 124.556 103.681C124.885 101.709 121.064 99.6716 118.692 98.6199C118.626 98.5541 118.56 98.4884 118.626 98.4227C118.692 98.3569 118.757 98.2912 118.823 98.3569C121.723 99.6716 125.149 101.709 124.82 103.747C124.82 103.813 124.82 103.879 124.885 103.944C125.215 104.404 126.796 104.602 128.575 104.865C131.87 105.325 136.351 105.916 137.932 108.48C138.657 109.663 138.657 111.109 138.064 112.818C138.064 112.884 137.998 112.884 137.932 112.884Z" fill="#2B2929"/>
<path d="M108.083 117.946C107.885 111.635 101.494 106.639 93.7187 106.837C85.9434 107.034 79.7496 112.293 79.9473 118.669C79.9473 119.523 80.0791 120.312 80.3426 121.167C79.6837 122.547 79.3542 123.993 79.3542 125.505C79.486 131.684 85.9434 136.614 93.7187 136.417C101.494 136.22 107.688 131.027 107.49 124.782C107.49 123.993 107.358 123.139 107.095 122.35C107.754 120.97 108.083 119.458 108.083 117.946Z" fill="#F8B5A4"/>
<path d="M89.238 117.946C89.1721 116.565 91.0171 115.448 93.2574 115.382H93.7846C95.8272 115.448 97.4086 116.434 97.4745 117.749C97.5404 119.129 95.6954 120.246 93.4551 120.312C92.5326 120.378 91.676 120.181 90.8194 119.852C89.8311 119.392 89.238 118.735 89.238 117.946Z" fill="white"/>
<path d="M85.4162 123.27C85.3503 123.27 85.2844 123.204 85.2844 123.139L84.889 121.824C84.7573 121.364 84.9549 120.904 85.3503 120.641L85.8774 120.312C85.9433 120.246 86.0751 120.246 86.0751 120.378C86.141 120.444 86.141 120.575 86.0092 120.575L85.4821 120.904C85.2185 121.101 85.0867 121.43 85.1526 121.758L85.548 123.073C85.6139 123.204 85.6139 123.27 85.4162 123.27C85.4821 123.27 85.4821 123.27 85.4162 123.27Z" fill="#403838"/>
<path fill-rule="evenodd" clip-rule="evenodd" d="M89.6993 124.19C89.6993 123.927 85.3505 124.782 85.2846 125.045C85.2187 125.439 85.2846 126.491 86.9978 126.36C88.5133 126.162 89.6993 124.453 89.6993 124.19Z" fill="white"/>
<path d="M94.3777 116.105C94.3777 115.842 94.3118 115.645 94.2459 115.382C94.1141 115.382 93.9164 115.316 93.7846 115.316C93.6528 115.316 93.4552 115.316 93.2575 115.316C90.9513 115.382 89.1722 116.499 89.2381 117.88C89.2381 118.077 89.304 118.209 89.304 118.34C90.49 119.523 92.335 119.523 93.5211 118.34C94.1141 117.814 94.4435 116.96 94.3777 116.105Z" fill="#2B2929"/>
<path d="M91.4783 112.49C92.4666 113.278 93.455 114.067 94.5093 114.725C98.7264 117.354 103.536 118.669 107.161 118.274C108.149 118.209 109.137 117.946 110.06 117.485C110.587 117.223 111.114 116.828 111.509 116.434C110.06 107.691 101.757 101.709 92.9938 103.221C90.6876 103.616 88.4472 104.47 86.5364 105.851C87.1953 107.888 88.8426 110.255 91.4783 112.49Z" fill="#2B2929"/>
<path d="M90.2923 114.264C89.6993 114.264 89.238 113.804 89.238 113.213C89.238 112.753 89.5016 112.424 89.897 112.227C90.8853 111.832 91.9396 111.635 92.9939 111.569C94.0481 111.504 95.1024 111.569 96.1567 111.898C96.6838 112.095 97.0133 112.687 96.8815 113.213C96.7497 113.739 96.1567 114.067 95.5637 113.936C94.773 113.739 93.9822 113.673 93.1256 113.739C92.3349 113.804 91.4784 113.936 90.7535 114.199C90.5559 114.265 90.4241 114.264 90.2923 114.264Z" fill="#2B2929"/>
<path d="M80.2108 116.631C79.8813 116.499 79.5519 115.513 80.4085 114.527C81.2651 113.541 82.517 113.344 83.7031 113.344C84.2961 113.344 84.7573 113.804 84.6915 114.396C84.6256 114.988 84.2302 115.382 83.6372 115.382C82.4511 115.382 81.331 115.842 80.8697 116.302C80.7379 116.565 80.4744 116.697 80.2108 116.631Z" fill="#2B2929"/>
<path d="M106.106 120.115C105.975 128.857 98.7923 135.825 90.0287 135.694C89.3698 135.694 88.645 135.628 87.9861 135.497C89.8311 136.088 91.7419 136.351 93.6528 136.285C101.428 136.088 107.622 130.895 107.424 124.651C107.424 123.139 106.963 121.495 106.106 120.115Z" fill="#DDA094"/>
<path d="M107.226 126.688C110.465 126.688 113.091 124.069 113.091 120.838C113.091 117.607 110.465 114.988 107.226 114.988C103.988 114.988 101.362 117.607 101.362 120.838C101.362 124.069 103.988 126.688 107.226 126.688Z" fill="#F8B5A4"/>
<path d="M107.226 123.402C107.095 123.402 107.029 123.402 106.897 123.402C106.831 123.402 106.765 123.336 106.765 123.204C106.765 123.139 106.831 123.073 106.963 123.073C108.149 123.27 109.269 122.416 109.467 121.167C109.664 119.983 108.808 118.866 107.556 118.669C107.49 118.669 107.424 118.603 107.424 118.472C107.424 118.406 107.49 118.34 107.622 118.34C109.005 118.537 109.994 119.786 109.796 121.167C109.533 122.481 108.478 123.402 107.226 123.402Z" fill="#403838"/>
<path d="M104.591 118.274C101.428 118.011 97.8039 116.762 94.5093 114.659C97.5403 116.828 100.901 118.274 104.064 118.932C104.195 118.734 104.393 118.472 104.591 118.274Z" fill="#DDA094"/>
<path d="M82.7848 121.099C84.1054 120.581 84.9058 119.476 84.5725 118.631C84.2393 117.787 82.8986 117.522 81.5779 118.041C80.2573 118.56 79.4569 119.665 79.7902 120.509C80.1234 121.354 81.4641 121.618 82.7848 121.099Z" fill="white"/>
<path d="M81.5286 118.077C80.2107 118.603 79.42 119.721 79.7495 120.575C79.8154 120.772 80.013 120.969 80.2107 121.101C81.5286 121.167 82.7805 120.312 83.1758 118.997C83.3076 118.603 83.3735 118.209 83.3076 117.814C82.8464 117.749 82.1875 117.814 81.5286 118.077Z" fill="#2B2929"/>
<path d="M15.3189 265.163C5.69693 236.159 45.0415 228.843 96.7101 230.886C112.197 231.479 114.965 216.912 112.922 204.849C111.802 197.928 41.8781 197.269 23.1614 218.56C12.2214 231.018 3.4562 244.201 8.00356 253.759C11.3647 261.076 11.2328 260.746 15.3189 265.163Z" fill="#04071C"/>
<path d="M145.808 332.529C147.522 324.817 132.694 308.931 129.728 310.447C129.201 310.975 129.069 311.766 129.398 312.491L136.648 328.047C137.241 329.3 138.23 330.354 139.416 331.013C139.416 331.013 145.677 333.189 145.808 332.529Z" fill="#F991AA"/>
<path d="M147.39 290.475C149.301 290.87 153.387 291.925 154.508 292.188C154.771 292.254 155.233 293.705 155.694 295.946C155.76 296.209 154.706 296.737 154.706 296.737C154.706 296.737 155.958 297.264 156.024 297.594C156.485 299.769 156.88 302.406 157.276 305.24C157.342 305.57 156.287 305.833 156.353 306.163C156.419 306.426 157.474 306.756 157.539 307.02C157.803 308.997 158.067 310.975 158.198 312.886C158.198 313.084 157.21 313.348 157.21 313.611C157.21 313.875 158.33 314.073 158.33 314.336C158.528 316.841 158.66 319.082 158.594 320.928C158.594 321.192 157.539 321.39 157.539 321.653C157.539 321.917 158.528 322.312 158.528 322.51C158.33 324.685 158.067 326.861 157.671 329.036C157.671 329.168 156.683 329.299 156.683 329.431C156.617 329.695 157.474 329.959 157.408 330.222C156.485 334.177 155.101 337.012 152.728 338.396C149.038 340.637 148.642 340.044 146.336 339.582C144.161 339.121 147.39 290.475 147.39 290.475Z" fill="#F9E7D7"/>
<path d="M153.585 327.52C152.86 336.023 148.84 340.242 146.402 339.517C143.963 338.792 142.843 338.594 138.427 329.431C135.923 324.356 130.321 311.898 129.333 309.327C128.74 307.811 134.341 304.91 135.132 306.163C136.384 308.074 141.195 320.994 153.585 327.52Z" fill="#FFAAC5"/>
<path d="M153.585 327.52C154.244 319.544 149.895 290.936 147.39 290.475C144.886 290.013 133.946 287.97 134.275 289.947C134.605 291.925 135.923 294.364 137.109 299.11C137.768 301.746 137.241 305.24 134.539 307.086C134.078 307.679 134.078 308.536 134.473 309.195L143.831 324.026C144.622 325.213 145.743 326.201 147.061 326.729L153.453 329.365C153.453 328.772 153.519 328.179 153.585 327.52Z" fill="#F991AA"/>
<path d="M147.39 290.475C146.138 290.211 142.975 289.618 140.273 289.354C142.645 295.484 147.983 310.843 149.17 314.534C150.158 317.435 152.135 324.949 153.651 324.685C153.453 314.205 149.697 290.936 147.39 290.475Z" fill="#FFAAC5"/>
<path d="M137.834 310.909C138.344 310.909 138.757 310.496 138.757 309.986C138.757 309.476 138.344 309.063 137.834 309.063C137.325 309.063 136.912 309.476 136.912 309.986C136.912 310.496 137.325 310.909 137.834 310.909Z" fill="#403838"/>
<path d="M137.834 311.041C137.241 311.041 136.78 310.579 136.78 309.986C136.78 309.393 137.241 308.931 137.834 308.931C138.23 308.931 138.559 309.129 138.757 309.459C139.086 309.986 138.889 310.579 138.427 310.909C138.23 310.975 138.032 311.041 137.834 311.041ZM137.834 309.195C137.439 309.195 137.109 309.525 137.109 309.92C137.109 310.316 137.439 310.645 137.834 310.645C138.23 310.645 138.559 310.316 138.559 309.92C138.559 309.59 138.296 309.261 137.966 309.195C137.966 309.195 137.9 309.195 137.834 309.195Z" fill="white"/>
<path d="M140.668 315.391C141.178 315.391 141.591 314.978 141.591 314.468C141.591 313.959 141.178 313.546 140.668 313.546C140.158 313.546 139.745 313.959 139.745 314.468C139.745 314.978 140.158 315.391 140.668 315.391Z" fill="#403838"/>
<path d="M140.668 315.589C140.075 315.589 139.614 315.128 139.614 314.534C139.614 313.941 140.075 313.48 140.668 313.48C141.261 313.48 141.722 313.941 141.722 314.534C141.722 314.93 141.525 315.259 141.195 315.457C141.063 315.523 140.866 315.589 140.668 315.589ZM140.668 313.743C140.273 313.743 139.943 314.073 139.943 314.468C139.943 314.864 140.273 315.193 140.668 315.193C141.063 315.193 141.393 314.864 141.393 314.468C141.393 314.337 141.327 314.205 141.261 314.073C141.129 313.875 140.932 313.743 140.668 313.743Z" fill="white"/>
<path d="M143.502 319.939C144.012 319.939 144.425 319.526 144.425 319.017C144.425 318.507 144.012 318.094 143.502 318.094C142.992 318.094 142.579 318.507 142.579 319.017C142.579 319.526 142.992 319.939 143.502 319.939Z" fill="#403838"/>
<path d="M143.502 320.071C143.436 320.071 143.37 320.071 143.238 320.071C142.645 319.939 142.316 319.346 142.448 318.819C142.579 318.226 143.172 317.896 143.7 318.028C143.963 318.094 144.227 318.292 144.359 318.489C144.688 319.017 144.491 319.61 144.029 319.939C143.897 320.071 143.7 320.071 143.502 320.071ZM143.502 318.292C143.107 318.292 142.777 318.621 142.777 319.017C142.777 319.412 143.107 319.742 143.502 319.742C143.897 319.742 144.227 319.412 144.227 319.017C144.227 318.885 144.161 318.753 144.095 318.621C143.963 318.423 143.766 318.292 143.502 318.292Z" fill="white"/>
<path d="M146.336 324.488C146.845 324.488 147.258 324.074 147.258 323.565C147.258 323.055 146.845 322.642 146.336 322.642C145.826 322.642 145.413 323.055 145.413 323.565C145.413 324.074 145.826 324.488 146.336 324.488Z" fill="#403838"/>
<path d="M146.336 324.619C145.743 324.619 145.281 324.158 145.281 323.565C145.281 322.972 145.743 322.51 146.336 322.51C146.731 322.51 147.061 322.708 147.258 323.037C147.588 323.565 147.39 324.158 146.929 324.488C146.731 324.554 146.533 324.619 146.336 324.619ZM146.336 322.84C145.94 322.84 145.611 323.169 145.611 323.565C145.611 323.96 145.94 324.29 146.336 324.29C146.731 324.29 147.061 323.96 147.061 323.565C147.061 323.235 146.797 322.906 146.468 322.84C146.468 322.84 146.402 322.84 146.336 322.84Z" fill="white"/>
<path d="M136.648 328.64C136.582 328.64 136.516 328.64 136.516 328.575C136.187 328.047 136.253 327.388 136.582 326.927C137.9 324.883 143.502 323.367 145.479 323.631C145.545 323.631 145.611 323.697 145.611 323.829C145.611 323.894 145.545 323.96 145.413 323.96C143.304 323.763 138.032 325.279 136.846 327.124C136.582 327.52 136.516 328.047 136.78 328.443C136.846 328.509 136.78 328.64 136.714 328.64C136.648 328.575 136.648 328.64 136.648 328.64Z" fill="white"/>
<path d="M134.341 323.697C134.275 323.697 134.209 323.697 134.209 323.631C133.88 323.103 133.88 322.444 134.275 321.917C135.593 319.939 140.734 318.753 142.579 319.017C142.645 319.017 142.711 319.082 142.711 319.214C142.711 319.28 142.645 319.346 142.513 319.346C140.536 319.082 135.659 320.401 134.473 322.115C134.144 322.51 134.144 323.037 134.407 323.499C134.473 323.565 134.407 323.697 134.341 323.697Z" fill="white"/>
<path d="M132.035 318.819C131.969 318.819 131.903 318.819 131.903 318.753C131.573 318.226 131.573 317.5 131.969 316.973C133.221 315.193 137.768 314.007 139.679 314.336C139.745 314.336 139.811 314.468 139.811 314.534C139.811 314.6 139.745 314.666 139.614 314.666C137.768 314.336 133.353 315.457 132.166 317.171C131.837 317.566 131.771 318.16 132.101 318.621C132.166 318.687 132.101 318.819 132.035 318.819C132.101 318.819 132.101 318.819 132.035 318.819Z" fill="white"/>
<path d="M129.86 314.139C129.794 314.139 129.728 314.139 129.728 314.073C129.332 313.48 129.398 312.689 129.86 312.161C131.112 310.447 135.198 309.459 136.911 309.788C136.977 309.788 137.043 309.92 137.043 309.986C137.043 310.052 136.911 310.118 136.846 310.118C135.198 309.788 131.244 310.711 130.123 312.359C129.728 312.82 129.728 313.414 130.057 313.941C130.123 314.007 130.057 314.139 129.992 314.139C129.926 314.139 129.86 314.139 129.86 314.139Z" fill="white"/>
<path d="M147.786 340.11C147.456 340.11 147.127 340.044 146.863 339.978C146.797 339.978 146.731 339.846 146.731 339.78C146.731 339.714 146.863 339.648 146.929 339.648C147.786 339.978 148.84 339.78 149.829 339.121C152.004 337.737 154.508 334.111 155.101 327.915C155.496 324.29 154.837 315.523 153.519 306.624C152.201 297.462 150.62 291.2 149.565 291.002C149.499 291.002 149.433 290.936 149.433 290.804C149.433 290.738 149.499 290.672 149.631 290.672C151.41 291.002 153.322 302.933 153.849 306.558C155.167 315.457 155.826 324.29 155.431 327.981C154.837 334.243 152.267 338 150.026 339.385C149.367 339.846 148.577 340.11 147.786 340.11Z" fill="#403838"/>
<path d="M131.31 285.663C129.398 285.795 127.751 286.124 124.851 285.597C111.934 283.29 102.312 276.434 92.1628 272.809C91.5038 265.36 89.7903 256.132 87.0223 245.651C84.0566 234.182 84.6498 216.187 78.8502 209.793C75.0278 205.574 53.4773 208.936 53.1477 211.836C52.95 213.814 52.95 216.45 53.1477 219.614C51.1706 229.436 50.3139 238.466 52.6205 254.55C53.8068 262.328 56.6406 291.529 73.6438 295.418C84.518 309.063 91.1083 313.348 96.7761 316.841C101.917 320.005 106.793 321.917 111.275 322.378C114.438 325.872 118.59 328.179 123.533 328.509C133.353 329.168 144.293 316.841 144.293 305.042C144.293 293.243 141.063 285.135 131.31 285.663Z" fill="#F8A036"/>
<path d="M117.668 290.211C120.567 289.42 125.444 287.113 127.026 285.992C127.092 285.992 127.092 285.926 127.026 285.86L126.96 285.795C126.367 285.729 124.785 285.531 124.785 285.531C112.791 282.894 101.851 276.171 92.2288 272.743C91.5697 265.294 89.8562 256.066 87.0883 245.585C86.7587 244.267 86.4292 242.949 86.0338 241.696C82.2114 232.864 71.0736 233.523 70.9418 237.939C70.6782 245.915 73.5121 253.891 80.0366 265.097C88.4722 279.467 97.5011 289.618 107.189 290.87C110.682 291.463 114.241 291.2 117.668 290.211Z" fill="#D88830"/>
<path d="M73.6438 295.353C76.0163 298.319 78.1253 300.824 80.1024 302.999C79.9047 300.099 81.8159 296.737 82.5408 295.88C79.1138 295.946 77.0708 296.078 73.6438 295.353Z" fill="#D88830"/>
<path d="M70.9419 215.396C71.535 215.33 77.071 215 81.6842 214.868C80.9593 212.825 80.0366 211.045 78.9163 209.793C75.0938 205.574 53.5433 208.936 53.2138 211.836C53.0161 213.814 53.0161 216.45 53.2138 219.614C53.082 220.273 52.9502 220.999 52.8184 221.658C56.0476 218.691 62.9016 216.187 70.9419 215.396Z" fill="#D88830"/>
<path d="M79.5092 296.144C77.598 296.144 75.6209 295.946 73.7756 295.55C73.7097 295.55 73.6438 295.418 73.6438 295.353C73.6438 295.287 73.7756 295.221 73.8415 295.221C77.4003 295.946 79.9047 295.88 83.1339 295.682C83.1998 295.682 83.2658 295.748 83.3317 295.814C83.3317 295.88 83.2658 295.946 83.1999 296.012C81.8818 296.078 80.6955 296.144 79.5092 296.144Z" fill="#403838"/>
<path d="M125.247 318.226C121.16 321.653 116.481 322.972 111.341 322.378C113.516 324.817 116.218 326.663 119.315 327.718C119.579 326.861 120.04 326.267 121.029 325.542C124.126 323.235 128.146 321.851 130.058 318.489C130.98 316.907 132.166 313.282 130.651 309.788C129.662 313.282 127.817 316.116 125.247 318.226Z" fill="#D88830"/>
<path d="M177.772 266.283C175.004 258.835 153.717 253.561 152.069 256.396C151.938 257.121 152.201 257.912 152.86 258.307L167.491 267.47C168.677 268.195 170.061 268.59 171.511 268.459C171.445 268.459 177.97 266.877 177.772 266.283Z" fill="#F991AA"/>
<path d="M156.024 229.831C157.869 229.172 161.889 227.722 162.944 227.392C163.207 227.327 164.393 228.249 165.975 229.897C166.173 230.095 165.58 231.084 165.58 231.084C165.58 231.084 166.964 230.82 167.161 231.084C168.743 232.666 170.523 234.709 172.434 236.819C172.631 237.082 171.907 237.873 172.17 238.071C172.302 238.269 173.422 237.939 173.62 238.137C174.938 239.653 176.19 241.235 177.442 242.751C177.574 242.949 176.849 243.74 176.981 243.872C177.113 244.069 178.167 243.674 178.299 243.872C179.815 245.849 181.199 247.761 182.187 249.343C182.319 249.606 181.594 250.331 181.726 250.529C181.858 250.793 182.912 250.529 183.044 250.727C184.099 252.704 185.087 254.682 185.878 256.725C185.944 256.857 185.219 257.45 185.219 257.582C185.285 257.846 186.208 257.582 186.274 257.846C187.658 261.669 188.053 264.833 186.801 267.338C184.89 271.227 184.231 270.963 182.056 271.82C179.947 272.743 156.024 229.831 156.024 229.831Z" fill="#F9E7D7"/>
<path d="M181.528 257.78C185.614 265.36 184.494 271.161 182.056 271.886C179.617 272.611 178.563 273.073 169.797 267.733C164.921 264.767 153.321 257.385 151.081 255.671C149.763 254.682 152.926 249.145 154.244 249.804C156.353 250.793 167.491 259.032 181.528 257.78Z" fill="#FFAAC5"/>
<path d="M181.528 257.78C177.706 250.661 158.396 228.843 155.958 229.831C153.585 230.82 143.238 235.105 144.556 236.555C145.94 238.071 148.379 239.389 151.938 242.751C153.915 244.663 155.431 247.827 154.112 250.925C154.047 251.716 154.508 252.441 155.167 252.704L171.313 260.219C172.631 260.812 174.081 261.01 175.465 260.746L182.319 259.494C182.122 258.901 181.858 258.307 181.528 257.78Z" fill="#F991AA"/>
<path d="M156.024 229.831C154.837 230.359 151.806 231.545 149.367 232.798C154.772 236.489 166.371 247.958 168.941 251.057C170.918 253.43 176.586 254.748 180.079 255.341C174.147 246.64 158.133 228.974 156.024 229.831Z" fill="#FFAAC5"/>
<path d="M158.594 252.441C159.103 252.441 159.516 252.028 159.516 251.518C159.516 251.008 159.103 250.595 158.594 250.595C158.084 250.595 157.671 251.008 157.671 251.518C157.671 252.028 158.084 252.441 158.594 252.441Z" fill="#403838"/>
<path d="M158.594 252.639C158.001 252.639 157.54 252.177 157.54 251.584C157.54 250.991 158.001 250.529 158.594 250.529C159.187 250.529 159.648 250.991 159.648 251.584C159.648 252.045 159.385 252.441 158.924 252.573C158.858 252.573 158.726 252.639 158.594 252.639ZM158.594 250.793C158.199 250.793 157.869 251.122 157.869 251.518C157.869 251.913 158.199 252.243 158.594 252.243C158.989 252.243 159.319 251.913 159.319 251.518C159.319 251.254 159.121 250.991 158.858 250.859C158.792 250.793 158.726 250.793 158.594 250.793Z" fill="white"/>
<path d="M163.471 254.748C163.98 254.748 164.393 254.335 164.393 253.825C164.393 253.315 163.98 252.902 163.471 252.902C162.961 252.902 162.548 253.315 162.548 253.825C162.548 254.335 162.961 254.748 163.471 254.748Z" fill="#403838"/>
<path d="M163.471 254.88C162.878 254.88 162.416 254.418 162.416 253.825C162.416 253.232 162.878 252.77 163.471 252.77C163.603 252.77 163.8 252.836 163.932 252.902C164.459 253.166 164.723 253.759 164.459 254.352C164.262 254.682 163.866 254.88 163.471 254.88ZM163.471 253.1C163.075 253.1 162.746 253.43 162.746 253.825C162.746 254.221 163.075 254.55 163.471 254.55C163.866 254.55 164.196 254.221 164.196 253.825C164.196 253.561 163.998 253.298 163.734 253.166C163.668 253.1 163.603 253.1 163.471 253.1Z" fill="white"/>
<path d="M168.348 257.055C168.857 257.055 169.27 256.642 169.27 256.132C169.27 255.622 168.857 255.209 168.348 255.209C167.838 255.209 167.425 255.622 167.425 256.132C167.425 256.642 167.838 257.055 168.348 257.055Z" fill="#403838"/>
<path d="M168.348 257.187C167.755 257.187 167.293 256.725 167.293 256.132C167.293 255.539 167.755 255.077 168.348 255.077C168.479 255.077 168.677 255.143 168.809 255.209C169.336 255.473 169.6 256.066 169.336 256.659C169.139 256.923 168.743 257.187 168.348 257.187ZM168.348 255.341C167.952 255.341 167.623 255.671 167.623 256.066C167.623 256.462 167.952 256.791 168.348 256.791C168.743 256.791 169.073 256.462 169.073 256.066C169.073 255.802 168.875 255.539 168.611 255.407C168.545 255.407 168.479 255.341 168.348 255.341Z" fill="white"/>
<path d="M173.225 259.362C173.734 259.362 174.147 258.949 174.147 258.439C174.147 257.93 173.734 257.516 173.225 257.516C172.715 257.516 172.302 257.93 172.302 258.439C172.302 258.949 172.715 259.362 173.225 259.362Z" fill="#403838"/>
<path d="M173.225 259.494C172.631 259.494 172.17 259.032 172.17 258.439C172.17 257.846 172.631 257.385 173.225 257.385C173.356 257.385 173.554 257.45 173.686 257.516C174.213 257.78 174.477 258.373 174.213 258.967C174.015 259.23 173.62 259.494 173.225 259.494ZM173.225 257.648C172.829 257.648 172.5 257.978 172.5 258.373C172.5 258.769 172.829 259.098 173.225 259.098C173.62 259.098 173.95 258.769 173.95 258.373C173.95 258.11 173.752 257.846 173.488 257.714C173.488 257.714 173.356 257.648 173.225 257.648Z" fill="white"/>
<path d="M167.689 267.997H167.623C167.095 267.733 166.766 267.14 166.766 266.547C166.766 264.108 170.654 259.758 172.434 258.835C172.499 258.769 172.631 258.835 172.631 258.901C172.697 258.967 172.631 259.098 172.565 259.098C170.654 260.087 167.029 264.306 167.029 266.481C166.964 266.942 167.293 267.404 167.689 267.668C167.754 267.733 167.82 267.799 167.754 267.865C167.82 267.997 167.754 267.997 167.689 267.997Z" fill="white"/>
<path d="M163.075 265.097H163.009C162.416 264.833 162.087 264.24 162.153 263.581C162.219 261.208 165.843 257.384 167.557 256.528C167.623 256.462 167.754 256.528 167.754 256.593C167.82 256.659 167.754 256.791 167.689 256.791C165.843 257.648 162.482 261.471 162.416 263.515C162.35 264.042 162.68 264.503 163.141 264.701C163.207 264.767 163.273 264.833 163.207 264.899C163.141 265.031 163.141 265.097 163.075 265.097Z" fill="white"/>
<path d="M158.462 262.262H158.396C157.803 261.999 157.408 261.34 157.473 260.68C157.539 258.505 160.769 255.012 162.614 254.221C162.68 254.155 162.812 254.221 162.812 254.286C162.878 254.352 162.812 254.484 162.746 254.484C161.032 255.209 157.869 258.571 157.803 260.614C157.737 261.142 158.067 261.669 158.528 261.867C158.594 261.933 158.66 261.999 158.594 262.065C158.594 262.196 158.528 262.262 158.462 262.262Z" fill="white"/>
<path d="M154.046 259.494H153.981C153.322 259.23 152.926 258.505 152.992 257.78C153.124 255.671 156.024 252.573 157.671 251.913C157.737 251.913 157.869 251.913 157.869 251.979C157.869 252.045 157.869 252.177 157.803 252.177C156.221 252.77 153.453 255.737 153.322 257.78C153.256 258.373 153.585 258.901 154.112 259.164C154.178 259.23 154.244 259.296 154.178 259.362C154.178 259.428 154.112 259.494 154.046 259.494Z" fill="white"/>
<path d="M182.583 272.018C182.517 272.018 182.451 271.952 182.451 271.886C182.451 271.82 182.517 271.754 182.583 271.754C183.505 271.557 184.23 270.832 184.758 269.711C185.812 267.338 185.944 262.922 183.044 257.385C181.331 254.089 175.992 247.036 169.995 240.246C163.866 233.259 159.055 228.777 158.067 229.172C158.001 229.172 157.869 229.172 157.869 229.106C157.869 229.04 157.869 228.909 157.935 228.909C159.648 228.249 167.754 237.28 170.193 240.048C176.19 246.904 181.594 253.957 183.308 257.253C186.208 262.856 186.076 267.47 185.021 269.909C184.494 270.963 183.637 271.754 182.583 272.018Z" fill="#403838"/>
<path d="M161.362 243.278L159.978 244.728C159.516 245.256 159.516 245.981 160.044 246.442L165.58 251.65C166.107 252.111 166.832 252.111 167.293 251.584L168.414 250.397C167.03 248.881 164.327 246.179 161.362 243.278Z" fill="#F75C84"/>
<path d="M162.087 251.584C158.067 239.983 149.631 232.6 138.559 235.5C137.966 235.632 137.439 235.83 136.912 236.028C128.146 238.466 117.272 249.87 113.516 255.209C111.077 258.703 116.877 287.311 122.083 286.124C125.642 285.333 127.817 284.806 132.694 283.092C134.869 282.301 137.373 281.115 140.602 279.137C142.777 277.753 144.886 276.171 146.797 274.457C159.253 275.643 167.491 267.14 162.087 251.584Z" fill="#F8A036"/>
<path d="M131.376 238.466C127.553 240.708 123.731 244.003 120.436 247.167L120.37 247.233C120.304 247.299 120.172 247.365 120.106 247.497C119.974 247.629 119.842 247.761 119.711 247.893C119.645 247.958 119.645 247.958 119.579 248.024C116.943 250.727 114.768 253.298 113.45 255.209C112.988 255.934 112.659 257.648 112.593 259.889C113.713 261.076 115.229 261.801 116.811 261.801C119.908 261.801 122.479 259.164 123.138 255.605C123.204 255.407 123.204 255.209 123.204 255.012C124.258 250.134 133.55 253.43 137.439 253.759C141.459 254.089 150.488 252.309 152.267 248.486C153.849 245.19 136.582 239.983 131.376 238.466Z" fill="#D88830"/>
<path d="M146.929 274.391C146.863 274.391 146.797 274.325 146.797 274.259C146.797 274.193 146.797 274.193 146.863 274.127C148.577 272.611 150.026 270.766 151.147 268.788C151.213 268.722 151.279 268.656 151.344 268.722C151.41 268.788 151.476 268.854 151.41 268.92C150.29 270.963 148.84 272.809 147.061 274.325C146.995 274.391 146.929 274.391 146.929 274.391Z" fill="#403838"/>
<path d="M125.049 274.193C123.533 272.414 122.413 262.065 120.963 255.605C119.908 250.859 115.427 244.531 113.12 241.499C112.264 240.378 112 238.928 112.329 237.61C112.988 234.907 113.516 229.568 111.275 225.019C108.573 219.548 102.18 214.868 97.8965 212.034C97.8965 212.034 78.4549 209.793 74.4347 214.868C69.2942 221.46 70.7441 229.106 70.5464 232.204C69.9533 240.246 74.5665 252.836 83.7272 264.767C93.8764 277.951 104.091 286.915 113.845 286.915C117.536 286.915 121.292 286.388 124.851 285.465C127.487 284.806 126.499 275.973 125.049 274.193Z" fill="#F8A036"/>
<path d="M88.538 270.897C88.4721 270.897 88.4721 270.897 88.4062 270.832C86.8245 268.986 85.177 267.008 83.5294 264.899C76.939 256.33 72.3916 246.838 70.744 238.203C68.6351 237.016 66.7239 235.434 65.0763 233.655C65.0104 233.589 65.0104 233.457 65.0763 233.457C65.1422 233.391 65.274 233.391 65.274 233.457C66.9216 235.237 68.8328 236.819 70.9417 238.005L71.0076 238.071V238.137C72.6552 246.772 77.2026 256.198 83.793 264.767C85.4406 266.877 87.0882 268.92 88.6039 270.7C88.6699 270.766 88.6699 270.897 88.6039 270.897C88.6039 270.832 88.6039 270.897 88.538 270.897Z" fill="#403838"/>
<path d="M114.438 287.113C113.911 287.113 113.384 287.113 112.857 287.047C112.791 287.047 112.725 286.981 112.725 286.849C112.725 286.783 112.791 286.717 112.923 286.717C117.206 287.047 123.138 285.926 124.719 285.201C124.785 285.135 124.917 285.201 124.917 285.267C124.983 285.333 124.917 285.465 124.851 285.465C123.204 286.256 118.327 287.113 114.438 287.113Z" fill="#403838"/>
<path d="M27.3135 141.767C26.7862 152.313 30.0155 172.154 55.8498 171.891C72.1281 171.693 88.8676 138.603 81.8159 138.273C78.982 138.141 76.7413 136.757 74.237 135.505C65.34 131.088 58.0905 124.694 54.2022 120.278C51.0388 116.521 28.4338 120.476 27.3135 141.767Z" fill="#0E1049"/>
<path d="M39.4397 155.609C38.9784 155.741 38.5829 155.807 38.1875 155.741C34.3651 155.346 30.9381 154.027 28.0383 151.786C28.3019 153.039 28.6315 154.291 29.0928 155.543C30.345 156.071 31.663 156.268 33.3765 156.4C35.4196 156.532 37.5285 156.268 39.4397 155.609Z" fill="#04071C"/>
<path d="M42.8669 90.4177C42.6032 89.5608 40.692 83.9579 40.3625 82.5736C41.1534 81.4531 43.7236 72.7521 44.5145 69.7199C44.844 68.3356 42.8669 68.7312 41.8124 69.5881C37.1332 73.2135 35.8811 75.6524 31.6632 74.9932C28.9612 74.5977 11.3648 67.0832 10.3104 70.1154C10.1786 70.5109 16.9008 74.4659 20.6573 76.9048C16.9008 75.9161 8.46507 74.0045 5.36759 76.5752C4.37903 77.4322 18.087 81.0576 19.6687 81.9804C15.1214 82.8373 5.89482 83.6283 6.42205 86.7923C6.55386 87.6492 22.5026 86.5946 23.6889 86.6605C25.9296 86.8582 30.411 91.8679 31.2019 95.3615C31.9927 98.855 43.5918 92.9885 42.8669 90.4177Z" fill="#F8B5A4"/>
<path d="M35.0902 82.0463H35.0243C33.5745 81.2553 31.2678 80.728 28.8294 80.5961C26.3909 80.4643 24.0843 80.7939 22.5685 81.4531C22.5026 81.519 22.3708 81.4531 22.3708 81.3871C22.3049 81.3212 22.3708 81.1894 22.4367 81.1894C24.0184 80.5302 26.325 80.2006 28.8294 80.3325C31.3996 80.4643 33.7063 80.9917 35.1561 81.7827C35.222 81.8486 35.288 81.9145 35.222 81.9804C35.222 82.0463 35.1561 82.0463 35.0902 82.0463Z" fill="#403838"/>
<path d="M54.5319 111.643C51.4344 101.887 48.3369 94.0432 45.2394 89.3631C45.7008 88.5062 45.7667 87.6493 45.3712 86.9901C44.3168 85.1444 41.6806 84.2216 36.5401 85.2763C33.3108 85.9354 30.8065 86.9901 28.2362 89.0994C25.3365 91.5384 24.4797 96.0866 26.9841 97.4708C27.1159 97.5368 27.3136 97.6027 27.4454 97.6027C26.7864 99.2506 26.1273 102.151 25.007 106.04C19.8665 124.365 17.9553 134.45 19.6028 142.162C21.4482 150.731 29.5543 154.752 38.1218 155.675C43.1964 156.203 43.46 143.744 42.9328 130.759C46.7552 130.165 48.3369 123.837 54.7296 121.399C57.4316 120.41 55.9158 116.059 54.5319 111.643Z" fill="#0E1049"/>
<path d="M40.6919 89.363C41.3509 89.363 38.1875 88.3743 32.388 89.9563C30.6086 90.4177 27.6429 91.6042 25.7976 93.1862C25.3363 94.9659 25.6658 96.7457 27.1157 97.4708C29.0269 94.7023 33.772 89.6267 40.6919 89.363Z" fill="#04071C"/>
<path d="M55.8498 120.608C55.2567 121.926 56.5088 122.519 57.2997 123.508C55.1249 123.376 50.5116 125.683 46.4915 129.572C47.0846 127.727 48.0731 126.013 49.3253 124.563C51.2365 122.321 52.6864 121.069 55.8498 120.608Z" fill="#04071C"/>
<path d="M112.263 157.389C109.495 150.731 103.169 144.601 92.2946 141.108C64.4832 131.945 41.2191 190.743 44.7779 209.529C47.0186 221.526 58.0905 214.539 71.2053 214.407C87.4836 214.209 97.5669 219.416 106.793 218.494C121.556 216.978 120.37 176.966 112.263 157.389Z" fill="#AE75BC"/>
<path d="M109.298 201.685C92.7561 199.576 75.9506 202.08 60.7268 208.87C57.2998 210.386 53.8728 212.166 50.1163 212.1C48.3369 212.034 46.5575 211.572 44.9758 210.65C47.7438 220.999 58.4861 214.539 71.1396 214.341C87.4179 214.143 97.5012 219.351 106.728 218.428C112.264 217.835 115.559 211.968 117.075 203.794C114.768 202.608 112 202.015 109.298 201.685Z" fill="#8C6FB5"/>
<path d="M170.193 228.183C164.459 226.667 161.098 225.283 154.837 223.042C133.287 215.198 115.954 202.806 113.054 186.722C112.198 181.976 113.647 172.418 112.922 166.617C111.67 155.675 109.693 151.457 107.387 149.545C103.828 146.513 99.8735 143.942 95.6557 141.899C91.4378 139.855 87.3518 138.735 83.4635 138.471C80.4319 138.207 73.7756 140.383 70.3486 142.821C64.4832 146.051 59.3427 151.852 54.9271 157.455C42.9326 172.682 44.5802 183.888 28.5656 197.532C13.3418 210.518 4.24708 219.351 1.41321 234.577C-1.68427 250.463 15.3189 267.272 15.3189 265.163C15.1212 240.708 32.6516 225.745 43.7894 215.198C53.4772 206.101 66.4603 171.561 69.2282 171.1C70.5463 170.902 63.0333 202.871 70.744 224.492C75.8845 238.73 91.8991 264.899 106.398 266.283C108.111 266.415 103.301 244.267 131.441 249.87C160.505 255.671 169.204 235.962 171.181 229.436C171.313 228.909 171.445 228.513 170.193 228.183Z" fill="#0E1049"/>
<path d="M151.279 221.658C131.771 213.945 116.416 202.278 113.252 187.513C111.341 184.81 96.0513 190.018 95.3922 192.588C94.4696 196.148 99.8078 212.957 107.321 221.13C110.88 225.019 118.59 226.008 117.272 224.426C115.361 222.053 120.502 220.537 126.235 223.833C131.508 226.931 150.158 232.073 151.279 221.658Z" fill="#04071C"/>
<path d="M175.861 160.157C174.411 163.19 169.798 170.572 166.964 169.452C164.196 172.022 164.657 172.154 161.955 174C159.253 175.846 150.488 172.484 151.938 168.133C154.046 161.937 155.233 157.455 157.671 154.62C160.11 151.786 163.141 150.27 165.975 151.852C168.809 153.434 176.717 158.312 175.861 160.157Z" fill="#DDA094"/>
<path d="M183.044 182.24C184.099 180.328 185.153 178.087 185.153 178.087L168.743 155.741C168.743 155.741 174.081 185.535 174.609 186.524C175.07 187.513 177.772 187.974 179.881 186.26C180.474 185.799 181.067 185.272 181.594 184.678C182.912 183.294 183.44 182.24 183.44 182.24C183.44 182.24 183.242 182.24 183.044 182.24Z" fill="#EACAAC"/>
<path d="M183.374 182.306C181.594 182.042 179.815 182.174 178.101 182.569C177.904 182.635 177.706 182.701 177.508 182.767L178.629 185.47C178.629 185.47 184.692 184.217 183.374 182.306Z" fill="#FFE3C3"/>
<path d="M178.102 182.569C179.815 182.108 181.66 182.042 183.374 182.305C183.374 182.305 171.313 160.289 169.204 155.477C167.227 150.995 166.173 131.945 165.646 129.968C164.789 126.738 151.872 131.088 153.783 134.977C154.442 136.296 160.769 153.038 163.537 159.432C166.107 165.299 173.356 183.36 174.477 186.129C174.345 185.074 175.729 183.162 178.102 182.569Z" fill="#F9E7D7"/>
<path d="M170.127 148.688C172.566 150.336 171.907 151.588 167.689 156.005C164.262 159.564 161.955 160.158 161.296 159.169C160.571 158.114 164.13 144.601 170.127 148.688Z" fill="#F7B4A3"/>
<path d="M175.861 153.632C177.574 156.005 176.454 156.994 170.984 159.564C166.502 161.674 163.141 162.135 162.68 161.014C162.087 159.564 172.104 148.424 175.861 153.632Z" fill="#F7B4A3"/>
<path d="M177.838 158.971C180.276 164.178 167.096 166.09 166.041 164.112C164.987 162.135 175.399 153.764 177.838 158.971Z" fill="#F7B4A3"/>
<path d="M162.219 159.762C161.823 159.762 161.362 159.564 161.164 159.235C160.769 158.576 161.626 154.621 163.207 151.588C163.273 151.522 163.339 151.457 163.405 151.522C163.471 151.588 163.537 151.654 163.471 151.72C161.757 154.884 161.098 158.576 161.362 159.037C161.691 159.498 162.35 159.564 163.273 159.169C163.339 159.103 163.471 159.169 163.471 159.235C163.537 159.301 163.471 159.432 163.405 159.432C163.075 159.63 162.68 159.696 162.219 159.762Z" fill="#403838"/>
<path d="M164.459 161.08C164.196 161.08 163.932 161.014 163.669 160.817C163.273 160.421 163.932 159.235 164.394 158.707C164.921 158.114 165.25 158.18 165.382 158.246C165.843 158.575 166.634 159.564 166.305 160.289C166.107 160.751 165.448 160.948 164.921 161.014C164.723 161.08 164.591 161.08 164.459 161.08ZM165.119 158.51C165.053 158.51 164.855 158.575 164.591 158.905C164.064 159.564 163.735 160.421 163.866 160.619C163.998 160.751 164.328 160.817 164.789 160.751C165.316 160.685 165.843 160.421 165.975 160.157C166.239 159.63 165.58 158.839 165.119 158.51C165.184 158.51 165.184 158.51 165.119 158.51Z" fill="#403838"/>
<path d="M167.886 164.244C167.491 164.244 167.095 164.178 166.832 163.915C166.568 163.717 166.634 163.19 166.964 162.662C167.359 162.069 167.952 161.476 168.545 161.608C168.941 161.74 169.27 162.003 169.468 162.399C169.6 162.794 169.6 163.19 169.468 163.585C169.336 163.849 168.941 164.113 168.348 164.178C168.216 164.244 168.018 164.244 167.886 164.244ZM168.348 161.937C167.952 161.937 167.491 162.399 167.227 162.86C166.964 163.322 166.964 163.651 167.03 163.717C167.227 163.915 167.755 163.981 168.282 163.915C168.743 163.849 169.073 163.651 169.138 163.453C169.27 163.19 169.27 162.86 169.138 162.596C169.007 162.267 168.743 162.069 168.414 162.003C168.414 161.937 168.414 161.937 168.348 161.937Z" fill="#403838"/>
<path d="M162.285 158.839C162.153 158.839 162.021 158.839 161.889 158.773C161.494 158.575 161.494 157.916 161.625 157.323C161.757 156.73 162.087 156.005 162.68 155.939C163.207 155.939 163.734 156.137 164.064 156.598C164.328 156.862 164.459 157.257 164.459 157.587C164.393 157.982 163.932 158.312 163.668 158.444C163.207 158.707 162.746 158.839 162.285 158.839ZM162.614 156.268C162.219 156.268 161.955 156.862 161.889 157.389C161.757 157.982 161.823 158.378 162.021 158.444C162.284 158.575 162.944 158.444 163.471 158.18C163.866 157.982 164.064 157.719 164.13 157.587C164.13 157.323 164.064 157.059 163.8 156.862C163.471 156.466 163.075 156.268 162.614 156.268Z" fill="#403838"/>
<path d="M168.809 165.101C167.359 165.101 166.239 164.838 165.909 164.244C165.316 163.19 167.359 161.278 167.952 160.685C168.018 160.619 168.084 160.619 168.15 160.685C168.216 160.751 168.216 160.817 168.15 160.883C166.634 162.267 165.843 163.519 166.173 164.047C166.7 164.969 170.918 165.035 174.345 163.717C174.411 163.717 174.543 163.717 174.543 163.849C174.543 163.915 174.543 164.047 174.477 164.047C172.697 164.706 170.786 165.035 168.809 165.101Z" fill="#403838"/>
<path d="M164.13 161.805C163.8 161.805 163.405 161.74 163.075 161.674C162.812 161.608 162.614 161.41 162.482 161.146C162.021 159.96 166.634 154.818 170.654 152.973C170.72 152.907 170.852 152.973 170.852 153.039C170.918 153.104 170.852 153.236 170.786 153.236C166.634 155.148 162.482 160.158 162.746 161.014C162.812 161.212 163.009 161.344 163.141 161.41C164.328 161.871 167.359 161.146 170.786 159.498C172.829 158.576 174.015 157.916 174.872 157.323C174.938 157.257 175.07 157.323 175.07 157.389C175.07 157.455 175.07 157.587 175.004 157.587C174.147 158.18 172.961 158.773 170.918 159.762C168.216 161.08 165.711 161.805 164.13 161.805Z" fill="#403838"/>
<path d="M154.705 160.223C154.574 156.268 154.903 150.6 159.055 149.611C163.207 148.622 167.491 150.468 169.073 151.588C170.72 152.709 171.906 154.291 168.282 154.423C164.591 154.555 163.668 154.423 163.009 154.423C162.35 154.423 162.614 156.466 161.23 159.103C159.648 162.399 154.837 164.508 154.705 160.223Z" fill="#F7B4A3"/>
<path d="M158.791 162.135C158.726 162.135 158.66 162.069 158.66 162.003C158.66 161.937 158.66 161.871 158.726 161.871C159.78 161.212 160.637 160.223 161.23 159.103C161.757 158.048 162.153 156.862 162.416 155.675C162.614 154.818 162.746 154.291 163.141 154.291C163.339 154.291 163.537 154.291 163.8 154.291C164.525 154.357 165.711 154.357 168.413 154.291C170.193 154.225 170.588 153.83 170.654 153.566C170.786 153.104 170.193 152.445 169.138 151.72C167.82 150.863 166.305 150.27 164.789 149.875C164.723 149.875 164.657 149.743 164.657 149.677C164.657 149.611 164.789 149.545 164.855 149.545C166.436 149.94 167.952 150.534 169.336 151.457C170.061 151.918 171.181 152.841 170.984 153.698C170.786 154.291 169.995 154.555 168.413 154.621C165.711 154.686 164.459 154.686 163.734 154.621C163.471 154.621 163.273 154.621 163.075 154.621C162.878 154.621 162.746 155.148 162.614 155.741C162.35 156.994 161.955 158.114 161.428 159.235C160.834 160.421 159.912 161.41 158.791 162.069C158.857 162.135 158.857 162.135 158.791 162.135Z" fill="#403838"/>
<path d="M169.6 153.632C168.941 153.632 168.348 153.5 167.755 153.17C167.425 152.973 167.293 152.775 167.293 152.511C167.293 152.05 167.689 151.654 168.282 151.127C168.348 151.061 168.479 151.061 168.479 151.127C168.545 151.193 168.545 151.259 168.479 151.325C168.084 151.654 167.623 152.116 167.623 152.445C167.623 152.577 167.755 152.709 167.952 152.841C168.545 153.236 169.666 153.368 170.259 153.17C170.391 153.17 170.522 153.039 170.588 152.907C170.588 152.841 170.72 152.775 170.786 152.841C170.852 152.841 170.918 152.973 170.852 153.039C170.786 153.236 170.588 153.434 170.391 153.5C170.061 153.566 169.798 153.632 169.6 153.632Z" fill="#403838"/>
<path d="M137.636 178.482C130.716 177.362 126.301 172.352 115.031 157.455C112.659 154.357 109.891 151.522 106.859 149.018C103.235 145.985 74.6323 162.399 83.5953 179.537C85.5724 183.294 87.5495 186.92 89.3289 190.084C90.7788 193.907 92.69 197.532 94.9966 200.828C101.851 210.584 109.891 215.659 118.063 216.318C119.579 216.45 124.06 216.582 124.719 216.648C130.321 216.978 135.396 215.132 138.757 210.056C148.84 194.698 144.49 179.603 137.636 178.482Z" fill="#0E1049"/>
<path d="M127.751 182.042C128.608 180.789 129.728 178.087 131.573 176.109C129.135 174.461 128.08 173.275 125.378 170.506C124.588 176.439 126.696 183.558 127.751 182.042Z" fill="#04071C"/>
<path d="M161.23 164.31C155.43 158.378 152.069 158.576 150.224 161.674C149.697 162.596 149.631 163.519 150.092 164.574C144.688 165.365 138.889 169.584 131.31 175.912C131.178 175.978 128.937 175.714 127.092 176.241C112.461 180.262 109.957 199.312 115.625 207.024C118.261 210.584 123.533 215.066 130.98 216.055C134.803 216.582 138.757 216.45 142.052 215.396C153.585 211.836 159.846 190.018 164.13 176.637C164.723 176.571 165.25 176.307 165.711 175.714C167.82 173.209 166.634 169.847 161.23 164.31Z" fill="#0E1049"/>
<path d="M154.706 163.717C153.453 162.728 152.069 161.871 150.554 161.212C150.422 161.344 150.356 161.542 150.224 161.674C149.697 162.596 149.631 163.519 150.026 164.442C154.969 166.881 159.121 170.309 160.439 171.825C159.846 169.188 157.803 166.156 154.706 163.717Z" fill="#04071C"/>
<path d="M116.877 208.408C118.063 211.045 122.017 214.802 124.719 216.582C126.828 216.714 128.937 216.516 130.914 215.923C127.487 215.33 120.436 212.429 116.877 208.408Z" fill="#04071C"/>
<path d="M0.754254 198.982C-0.69563 197.466 3.85173 179.076 4.84029 177.757C5.82885 176.439 17.6256 170.836 40.4283 170.572C43.1304 170.572 49.9844 167.013 53.6091 161.476C60.7267 150.468 69.0306 139.789 76.9391 136.757C77.3345 136.757 86.4951 139.394 85.902 139.46C77.4004 140.185 68.8329 150.863 62.9675 161.014C57.102 171.231 51.4343 174.791 46.4915 178.285C38.9785 183.558 34.5629 182.569 25.9954 186.722C19.1414 190.018 17.0984 194.961 15.5826 195.291C13.4737 195.884 1.14968 199.444 0.754254 198.982Z" fill="#FFDC83"/>
<path d="M57.5634 168.859C53.5432 172.22 44.0531 171.693 41.351 171.693C18.5483 171.957 7.08104 178.219 6.15839 179.537C5.69706 180.13 4.24718 183.624 2.7973 188.304C1.34741 193.182 0.0293358 198.257 0.754278 198.982C0.951989 199.18 3.78585 198.521 6.88333 197.73C7.08104 197.664 7.27876 197.598 7.54237 197.532C7.87189 197.466 8.20141 197.335 8.53093 197.269C10.0467 196.873 11.4966 196.478 12.7488 196.082L13.276 195.95L13.5396 195.884L14.0009 195.753C14.1987 195.687 14.4623 195.621 14.5941 195.555C14.7259 195.489 14.8577 195.489 14.9236 195.489C15.1872 195.423 15.4508 195.357 15.5826 195.291C17.0325 194.896 19.0755 190.018 25.9954 186.722C34.5629 182.569 39.0444 183.558 46.4915 178.285C49.8526 175.912 53.4114 173.67 57.5634 168.859Z" fill="#EFC15B"/>
<path d="M106.53 239.983C109.759 238.664 111.275 234.907 111.539 233.193C112.659 225.876 111.802 218.362 109.166 211.507C107.321 206.826 104.487 199.642 103.96 194.566C103.235 187.183 107.387 183.031 110.748 176.439C114.109 169.847 116.679 162.399 113.713 155.741C113.516 155.214 109.166 150.468 108.046 149.875C110.55 155.214 108.639 160.685 105.41 165.629C102.18 170.572 98.951 173.209 95.6558 178.153C90.8449 185.404 90.5153 196.543 92.5584 204.388C94.2719 210.913 98.1602 216.978 98.3579 223.767C98.4897 227.92 96.7103 230.095 93.8105 233.325C93.2833 233.918 93.0197 239.06 92.8879 240.708C92.8879 241.169 103.828 241.103 106.53 239.983Z" fill="#FFDC83"/>
<path d="M111.539 233.193C112.395 227.656 112.132 222.053 110.748 216.582C111.67 221.724 111.275 227.063 110.484 232.27C110.22 233.918 108.902 237.741 105.344 238.796C104.355 239.126 93.0196 240.51 92.9537 240.642C92.8878 241.103 103.828 241.037 106.53 239.917C109.759 238.664 111.275 234.841 111.539 233.193Z" fill="#EFC15B"/>
<path d="M102.378 143.283C102.312 143.283 102.246 143.283 102.246 143.217C98.6215 140.58 92.0311 139.064 83.2659 138.866C78.4549 138.735 73.2485 139.921 68.7012 140.91C63.5607 142.096 59.1451 143.085 56.4431 141.965C56.3113 141.899 56.2454 141.767 56.3113 141.635C56.3772 141.503 56.509 141.437 56.6408 141.503C59.211 142.558 63.4948 141.569 68.5694 140.383C73.1167 139.328 78.3231 138.141 83.2659 138.339C92.2947 138.603 98.7533 140.119 102.51 142.821C102.642 142.887 102.642 143.085 102.576 143.217C102.576 143.283 102.51 143.283 102.378 143.283Z" fill="#F991AA"/>
<path fill-rule="evenodd" clip-rule="evenodd" d="M98.885 146.645C87.0882 149.018 80.7614 156.005 75.2255 161.278C73.0507 163.322 73.2484 153.5 76.2141 146.117C78.323 140.844 81.6841 137.548 88.2086 137.548C100.467 137.482 102.707 145.854 98.885 146.645Z" fill="#0E1049"/>
<path fill-rule="evenodd" clip-rule="evenodd" d="M95.4581 145.524C86.4952 147.04 81.9479 150.995 77.6641 155.411C75.8188 157.323 77.7959 149.479 79.2458 146.315C80.7616 143.019 83.8591 140.251 88.011 140.185C96.249 140.119 98.4897 144.997 95.4581 145.524Z" fill="#8C6FB5"/>
<path d="M77.5322 160.685C76.28 160.685 74.9619 160.619 73.6438 160.553C62.572 159.96 61.0562 154.027 59.7381 148.754C59.0791 146.051 58.42 143.415 56.4429 141.965C56.3111 141.899 56.3111 141.701 56.377 141.569C56.4429 141.437 56.6406 141.437 56.7725 141.503C58.8814 143.085 59.5404 145.788 60.2654 148.622C61.5834 153.961 62.9674 159.432 73.7097 160.026C86.561 160.685 98.9509 157.982 103.762 153.434C105.146 152.116 105.871 150.731 105.871 149.281C105.871 147.04 104.685 144.997 102.312 143.283C102.18 143.217 102.18 143.019 102.246 142.887C102.312 142.756 102.51 142.756 102.642 142.821C105.212 144.667 106.464 146.842 106.464 149.281C106.464 150.929 105.673 152.445 104.223 153.83C99.6758 157.982 89.1312 160.685 77.5322 160.685Z" fill="#F991AA"/>
<path d="M57.7363 141.286C58.3641 139.08 55.5527 136.346 51.4569 135.18C47.361 134.014 43.5317 134.857 42.9039 137.063C42.2761 139.269 45.0874 142.002 49.1833 143.168C53.2791 144.335 57.1084 143.492 57.7363 141.286Z" fill="#D88830"/>
<path fill-rule="evenodd" clip-rule="evenodd" d="M57.8929 140.646C57.827 143.019 53.6092 143.085 49.5232 141.899C45.4371 140.712 42.5373 138.273 43.0646 136.427C43.5918 134.582 47.3483 133.989 51.4344 135.043C55.9158 136.164 57.9588 138.273 57.8929 140.646Z" fill="#F8A036"/>
<path fill-rule="evenodd" clip-rule="evenodd" d="M50.907 135.9C54.5976 136.757 55.8498 139.526 55.7839 141.899C55.7839 142.03 57.2997 141.767 57.2338 141.899C57.6292 141.569 57.8928 141.108 57.8928 140.646C57.9587 138.273 55.9157 136.164 51.5002 135.043C47.4141 133.989 43.7235 134.582 43.1304 136.427C44.4484 135.307 47.5459 135.109 50.907 135.9Z" fill="#EF8D22"/>
<path fill-rule="evenodd" clip-rule="evenodd" d="M57.7611 141.108C56.3113 142.228 53.2138 142.36 49.9186 141.437C45.9644 140.317 43.1305 138.009 43.2623 136.098C43.1964 136.23 43.1305 136.362 43.1305 136.427C42.6033 138.273 45.503 140.712 49.5891 141.899C53.3456 143.019 57.2339 143.019 57.7611 141.108Z" fill="#FFDC83"/>
<path fill-rule="evenodd" clip-rule="evenodd" d="M52.0933 136.23C53.8068 136.559 56.1134 137.614 56.1134 139.855C56.1134 140.712 55.0589 140.646 54.993 139.855C54.6635 137.548 52.8841 136.625 52.0933 136.23Z" fill="white"/>
<path d="M71.4913 2.71058C68.6532 -0.851398 58.1586 -1.51102 41.9218 5.34909C33.9354 8.71318 28.1931 8.44933 24.893 6.80026C25.025 6.14064 24.5629 5.54697 23.9029 5.41505C23.8369 5.41505 23.7709 5.41505 23.7049 5.41505C23.5729 5.41505 23.5069 5.41505 23.3749 5.48101C22.8469 4.35965 22.9789 2.90847 23.1769 1.91903C23.1769 1.78711 23.1109 1.58922 22.9789 1.58922C22.8468 1.58922 22.7148 1.65518 22.6488 1.78711C22.4508 2.71058 22.3188 4.02983 22.6488 5.1512C21.7248 4.16176 21.3948 2.97443 21.7248 1.98499C21.7908 1.85307 21.7248 1.65518 21.5268 1.65518C21.3948 1.58922 21.1968 1.65518 21.1968 1.85307C20.8007 2.97443 21.1968 4.29368 22.1208 5.41505C20.8007 4.35965 20.3387 2.77655 20.2067 2.18288C20.1407 2.05096 20.0087 1.91903 19.8767 1.98499C19.7447 2.05096 19.6127 2.18288 19.6787 2.31481C20.2067 4.29368 21.1968 5.61294 22.5828 6.33852C22.4508 6.99815 22.8469 7.59181 23.4409 7.7897C23.9029 7.92163 24.3649 7.72374 24.6949 7.32796C26.213 8.05355 28.1931 8.51529 30.7012 8.51529C33.8034 8.51529 37.6316 7.7897 42.1858 5.87679C49.6442 2.77654 56.4426 0.929592 61.8548 0.665742C66.3431 0.467854 69.7092 1.32537 71.0953 3.0404C72.0193 4.16176 71.9533 5.61294 70.8973 7.13008C70.8313 7.262 70.8313 7.45989 70.9633 7.52585C71.0953 7.59181 71.2933 7.59181 71.3593 7.45989C72.4814 5.74486 72.5474 4.0958 71.4913 2.71058Z" fill="#EFC15B"/>
<path d="M41.1958 39.7156L49.1162 52.5784L69.9733 31.0745L58.2907 22.1036L41.1958 39.7156Z" fill="#04071C"/>
<path d="M44.5619 24.3463L26.741 52.5783C26.609 52.7762 26.675 52.974 26.873 53.106C27.0051 53.1719 27.1371 53.1719 27.2691 53.106L51.7563 37.5388C52.6144 37.0111 53.2744 36.2855 53.8024 35.494L71.4253 7.45986C71.5573 7.26198 71.4913 7.06409 71.2933 6.93216C71.1613 6.8662 71.0293 6.8662 70.8973 6.93216L46.608 22.2355C45.816 22.7632 45.09 23.4888 44.5619 24.3463Z" fill="#0E1049"/>
</g>
<defs>
<clipPath id="clip0_292_822">
<rect width="187.089" height="340" fill="white" transform="translate(0.455566 0.131104)"/>
</clipPath>
</defs>
</svg>
