<svg width="335" height="282" viewBox="0 0 335 282" fill="none" xmlns="http://www.w3.org/2000/svg">
<path fill-rule="evenodd" clip-rule="evenodd" d="M163.27 2.60089C158.539 5.05438 151.624 8.82517 148.391 10.7146C147.171 11.4272 144.675 12.8369 142.844 13.846C141.014 14.855 138.185 16.4444 136.558 17.378C134.931 18.3116 131.436 20.2381 128.792 21.6589C126.148 23.0804 119.824 26.6294 114.739 29.5464C109.655 32.4626 102.166 36.6984 98.0985 38.9575C94.0307 41.2173 86.3759 45.5011 81.0877 48.4772C75.7996 51.4526 68.644 55.44 65.1863 57.3368C54.3512 63.2817 45.7889 68.0364 40.04 71.3001C36.9891 73.0321 31.3312 76.2026 27.4668 78.3449C23.6024 80.4871 18.3283 83.4448 15.7471 84.9173C13.1659 86.3899 10.7526 87.5948 10.385 87.5948C10.0175 87.5948 9.71643 87.8461 9.71643 88.1536C9.71643 88.4612 8.80081 89.1228 7.68254 89.6247C4.20716 91.183 0.841248 93.4524 0.841248 94.2367C0.841248 94.7187 6.19225 94.9922 15.8181 95.0026C32.2594 95.0196 50.597 96.8625 60.379 99.4808C62.0061 99.9169 64.6686 100.556 66.2957 100.901C67.9229 101.246 70.5026 101.886 72.0276 102.324C73.5534 102.761 75.8832 103.424 77.2048 103.796C81.3288 104.959 83.8731 105.831 89.2233 107.915C99.0334 111.736 103.585 113.755 112.151 118.087C127.885 126.043 143.483 137.516 157.397 151.366L167.621 161.543L170.473 158.389C177.631 150.473 179.837 148.246 185.373 143.337C191.71 137.719 201.944 129.845 204.971 128.26C205.987 127.727 206.986 127.089 207.189 126.841C208.646 125.066 228.027 114.848 235.517 111.906C237.631 111.075 240.36 109.941 241.581 109.386C248.352 106.303 268.286 100.505 278.191 98.7371C280.835 98.2655 284.662 97.5751 286.696 97.2025C290.175 96.5653 294.678 96.2319 297.605 96.3938C298.793 96.4596 298.9 97.7022 298.9 111.51V126.554L296.539 129.024C294.529 131.126 294.177 132.042 294.177 135.185C294.177 137.385 294.534 138.995 295.06 139.17C296.126 139.525 296.243 144.242 295.202 144.885C294.795 145.136 294.462 145.987 294.462 146.776C294.462 147.566 294.129 148.211 293.722 148.211C293.316 148.211 292.983 148.877 292.983 149.69C292.983 150.503 292.65 151.168 292.243 151.168C291.836 151.168 291.504 151.833 291.504 152.647C291.504 153.46 291.171 154.125 290.764 154.125C290.357 154.125 290.024 154.628 290.024 155.244C290.024 155.859 289.731 156.941 289.371 157.647C286.867 162.566 286.74 163.076 287.84 163.781C288.431 164.16 294.906 164.388 302.228 164.287L315.541 164.105L315.331 161.517C315.214 160.094 314.799 158.819 314.406 158.684C314.013 158.548 313.692 157.8 313.692 157.021C313.692 156.241 313.359 155.604 312.952 155.604C312.545 155.604 312.212 154.938 312.212 154.125C312.212 153.312 311.88 152.647 311.473 152.647C311.066 152.647 310.733 152.001 310.733 151.212C310.733 150.422 310.4 149.571 309.994 149.32C309.587 149.069 309.254 148.052 309.254 147.059C309.254 146.066 308.921 145.254 308.514 145.254C308.108 145.254 307.775 144.609 307.775 143.82C307.775 143.03 307.446 142.181 307.043 141.932C306.616 141.668 306.924 140.823 307.782 139.902C308.829 138.779 309.254 137.294 309.254 134.766C309.254 132.81 308.921 131.209 308.514 131.209C308.108 131.209 307.775 130.732 307.775 130.15C307.775 129.567 307.102 128.878 306.282 128.617C304.835 128.158 304.794 127.634 304.987 111.75L305.186 95.3567L319.793 95.1563C327.828 95.0462 334.4 94.7727 334.4 94.5487C334.4 93.6697 332.344 92.1979 327.744 89.7829C325.1 88.3954 322.77 87.0455 322.567 86.7824C322.363 86.52 319.867 85.0718 317.02 83.5645C314.172 82.0573 308.681 79.0479 304.816 76.876C300.952 74.7042 295.627 71.7244 292.983 70.2541C290.339 68.783 285.014 65.7899 281.149 63.6025C277.285 61.4144 271.128 57.9881 267.467 55.9877C263.806 53.9881 257.981 50.7518 254.524 48.7966C251.066 46.842 245.075 43.5133 241.211 41.4006C231.088 35.8668 223.338 31.4861 222.414 30.775C221.972 30.4364 219.115 28.822 216.065 27.1875C213.014 25.5538 207.689 22.6354 204.231 20.703C200.773 18.7707 196.114 16.1842 193.877 14.9548C191.639 13.7255 189.476 12.4644 189.069 12.1517C188.662 11.839 186 10.3517 183.152 8.84587C176.351 5.24954 171.496 2.56024 170.579 1.88237C168.669 0.46823 167.082 0.624945 163.27 2.60089ZM208.336 39.4757C209.373 40.464 218.354 45.4205 229.747 51.2922C232.595 52.7595 235.091 54.153 235.294 54.3888C235.497 54.6246 236.745 55.2884 238.068 55.8628C239.39 56.4379 240.471 57.1594 240.471 57.4669C240.471 57.7745 240.942 58.0258 241.519 58.0258C242.095 58.0258 242.677 58.2756 242.814 58.5802C242.949 58.8848 244.558 59.9278 246.388 60.8969C248.219 61.8661 251.464 63.6129 253.599 64.7779C255.734 65.9429 259.23 67.836 261.365 68.9848C266.608 71.8042 268.874 73.1067 269.316 73.5554C269.519 73.7617 271.932 75.0886 274.678 76.5042C277.423 77.9198 279.67 79.331 279.67 79.64C279.67 79.9497 280.336 80.2025 281.149 80.2025C281.963 80.2025 282.628 80.5352 282.628 80.9418C282.628 81.3483 283.211 81.6943 283.923 81.7098C286.287 81.763 280.293 83.8987 277.78 83.8987C276.427 83.8987 275.114 84.2313 274.863 84.6379C274.611 85.0445 273.534 85.3771 272.468 85.3771C271.402 85.3771 269.508 85.6876 268.259 86.0661C267.01 86.4453 264.49 87.1431 262.659 87.617C260.829 88.0908 258.753 88.7783 258.047 89.145C257.341 89.5123 256.245 89.8125 255.612 89.8125C252.992 89.8125 229.34 98.3173 224.79 100.896C223.782 101.466 222.664 100.763 219.195 97.374C214.011 92.3111 210.909 89.5715 206.45 86.12C204.619 84.7037 202.289 82.7884 201.273 81.8651C200.256 80.9418 198.841 80.0015 198.129 79.7753C197.418 79.5491 196.835 79.0937 196.835 78.764C196.835 78.4343 195.836 77.7505 194.616 77.2456C193.396 76.7408 192.397 76.1006 192.397 75.8226C192.397 75.5454 190.738 74.5053 188.711 73.5103C186.683 72.5153 185.019 71.4516 185.013 71.147C185.007 70.8425 184.488 70.5926 183.861 70.5926C183.234 70.5926 182.006 69.9273 181.133 69.1142C180.26 68.301 179.109 67.6357 178.575 67.6357C178.042 67.6357 177.605 67.3031 177.605 66.8965C177.605 66.4899 176.94 66.1573 176.126 66.1573C175.313 66.1573 174.644 65.9074 174.641 65.6028C174.634 64.939 171.053 63.2004 169.692 63.2004C169.163 63.2004 168.73 62.9061 168.73 62.5476C168.73 62.1884 168.065 61.7204 167.251 61.5075C165.426 61.0307 165.327 59.8177 167.066 59.2662C168.797 58.7177 172.736 56.3174 173.044 55.6233C173.18 55.3187 173.901 55.0689 174.647 55.0689C175.393 55.0689 176.114 54.819 176.25 54.5145C176.558 53.8203 180.497 51.4201 182.228 50.8716C182.939 50.6454 183.522 50.1671 183.522 49.8078C183.522 49.4493 184.188 49.1551 185.001 49.1551C185.815 49.1551 186.481 48.8224 186.481 48.4159C186.481 48.0093 187.146 47.6766 187.96 47.6766C188.773 47.6766 189.439 47.344 189.439 46.9374C189.439 46.5308 190.105 46.1982 190.918 46.1982C191.732 46.1982 192.403 45.9483 192.409 45.6438C192.415 45.3392 194.079 44.2755 196.107 43.2805C198.134 42.2855 199.793 41.2047 199.793 40.878C199.793 40.5512 200.459 40.2844 201.273 40.2844C202.086 40.2844 202.752 39.9517 202.752 39.5452C202.752 38.6226 207.38 38.5649 208.336 39.4757ZM151.352 71.011C155.553 72.7652 170.835 80.3681 175.017 82.7847C179.62 85.4451 189.173 91.7559 191.711 93.8139C192.757 94.6625 194.715 96.1883 196.062 97.2047C197.409 98.2212 199.09 99.5518 199.798 100.162C200.505 100.771 202.957 102.884 205.246 104.857C207.535 106.829 209.408 108.718 209.408 109.054C209.408 109.39 207.328 110.903 204.786 112.415C193.473 119.146 180.755 128.66 172.677 136.432C170.169 138.845 167.73 140.819 167.257 140.819C166.783 140.819 165.173 139.572 163.68 138.047C157.916 132.163 141.373 119.19 133.599 114.458C125.804 109.712 113.338 103.142 106.411 100.128C98.5119 96.691 98.5933 96.9622 104.469 93.6675C105.938 92.8433 107.935 91.7219 108.906 91.1756C109.877 90.6293 110.838 90.015 111.041 89.811C111.245 89.6077 112.41 88.9454 113.63 88.3407C114.85 87.7353 117.347 86.3817 119.177 85.3313C121.008 84.2816 125.052 82.0351 128.165 80.3393C131.278 78.6435 136.603 75.6186 139.999 73.6175C143.394 71.6157 146.715 69.9502 147.376 69.9155C148.038 69.8815 149.828 70.3745 151.352 71.011ZM72.3753 115.399C72.0824 115.692 71.8427 137.258 71.8427 163.324C71.8427 209.891 71.8686 210.739 73.3301 211.99C74.1488 212.69 75.0733 213.263 75.3862 213.263C75.6983 213.263 76.4334 213.928 77.0199 214.742C77.6064 215.555 78.5117 216.22 79.0324 216.22C79.5523 216.22 79.9783 216.553 79.9783 216.959C79.9783 217.366 80.4043 217.698 80.9243 217.698C81.4449 217.698 82.3502 218.364 82.9367 219.177C83.5232 219.99 84.4285 220.655 84.9492 220.655C85.4691 220.655 85.8951 220.988 85.8951 221.395C85.8951 221.801 86.3943 222.134 87.0045 222.134C87.6147 222.134 88.1139 222.388 88.1139 222.699C88.1139 223.009 89.4452 224.085 91.0723 225.091C92.6994 226.096 94.0307 227.172 94.0307 227.483C94.0307 227.793 94.5299 228.048 95.1401 228.048C95.7503 228.048 96.2495 228.38 96.2495 228.787C96.2495 229.193 96.6755 229.526 97.1955 229.526C97.7161 229.526 98.6214 230.191 99.2079 231.004C99.7944 231.818 100.7 232.483 101.22 232.483C101.74 232.483 102.166 232.816 102.166 233.222C102.166 233.629 102.495 233.961 102.898 233.961C103.584 233.961 105.522 235.365 107.743 237.473C108.279 237.981 109.073 238.397 109.51 238.397C109.945 238.397 110.302 238.729 110.302 239.136C110.302 239.543 110.728 239.875 111.248 239.875C111.769 239.875 112.674 240.54 113.26 241.354C113.847 242.167 114.752 242.832 115.273 242.832C115.793 242.832 116.219 243.165 116.219 243.571C116.219 243.978 116.718 244.311 117.328 244.311C117.938 244.311 118.437 244.643 118.437 245.05C118.437 245.456 118.794 245.789 119.23 245.789C119.666 245.789 120.46 246.205 120.996 246.713C123.217 248.821 125.155 250.224 125.842 250.224C126.244 250.224 126.573 250.557 126.573 250.964C126.573 251.37 126.902 251.703 127.305 251.703C127.991 251.703 129.929 253.107 132.15 255.214C132.686 255.723 133.407 256.138 133.753 256.138C134.099 256.138 134.862 256.803 135.448 257.617C136.035 258.43 136.94 259.095 137.461 259.095C137.981 259.095 138.407 259.428 138.407 259.834C138.407 260.241 138.906 260.573 139.516 260.573C140.126 260.573 140.625 260.906 140.625 261.313C140.625 261.719 141.051 262.052 141.571 262.052C142.092 262.052 142.997 262.717 143.584 263.53C144.17 264.344 145.076 265.009 145.596 265.009C146.116 265.009 146.542 265.341 146.542 265.748C146.542 266.155 147.041 266.487 147.652 266.487C148.262 266.487 148.761 266.82 148.761 267.227C148.761 267.633 149.187 267.966 149.707 267.966C150.228 267.966 151.133 268.631 151.719 269.444C152.306 270.257 153.211 270.923 153.732 270.923C154.252 270.923 154.678 271.255 154.678 271.662C154.678 272.068 155.104 272.401 155.624 272.401C156.144 272.401 157.05 273.066 157.636 273.88C158.223 274.693 159.128 275.358 159.649 275.358C160.169 275.358 160.595 275.691 160.595 276.097C160.595 276.504 161.094 276.836 161.704 276.836C162.314 276.836 162.813 277.169 162.813 277.576C162.813 277.982 163.313 278.315 163.923 278.315C164.533 278.315 165.032 278.648 165.032 279.054C165.032 279.461 165.503 279.793 166.08 279.793C166.656 279.793 167.295 280.209 167.501 280.717C167.799 281.457 167.886 281.457 167.932 280.717C167.964 280.21 168.417 279.793 168.937 279.793C169.457 279.793 170.362 279.128 170.949 278.315C171.535 277.502 172.441 276.836 172.961 276.836C173.481 276.836 173.907 276.504 173.907 276.097C173.907 275.691 174.333 275.358 174.853 275.358C175.374 275.358 176.279 274.693 176.866 273.88C177.452 273.066 178.358 272.401 178.878 272.401C179.398 272.401 179.824 272.068 179.824 271.662C179.824 271.255 180.323 270.923 180.934 270.923C181.544 270.923 182.043 270.59 182.043 270.183C182.043 269.777 182.542 269.444 183.152 269.444C183.763 269.444 184.262 269.112 184.262 268.705C184.262 268.298 184.688 267.966 185.208 267.966C185.728 267.966 186.634 267.3 187.22 266.487C187.807 265.674 188.712 265.009 189.233 265.009C189.753 265.009 190.179 264.676 190.179 264.27C190.179 263.863 190.605 263.53 191.124 263.53C191.645 263.53 192.55 262.865 193.137 262.052C193.723 261.239 194.629 260.573 195.149 260.573C195.669 260.573 196.095 260.241 196.095 259.834C196.095 259.428 196.595 259.095 197.205 259.095C197.815 259.095 198.314 258.762 198.314 258.356C198.314 257.949 198.643 257.617 199.046 257.617C199.73 257.617 200.401 257.129 204.478 253.671C205.359 252.923 206.996 251.77 208.114 251.108C209.233 250.447 210.148 249.645 210.148 249.325C210.148 249.007 210.647 248.746 211.257 248.746C211.867 248.746 212.367 248.413 212.367 248.007C212.367 247.6 212.744 247.267 213.204 247.267C213.665 247.267 214.58 246.683 215.238 245.969C215.896 245.255 217.35 244.2 218.468 243.626C219.586 243.052 220.502 242.306 220.502 241.968C220.502 241.63 221.001 241.354 221.612 241.354C222.222 241.354 222.721 241.021 222.721 240.614C222.721 240.208 223.147 239.875 223.667 239.875C224.188 239.875 225.093 239.21 225.679 238.397C226.266 237.584 227.171 236.918 227.692 236.918C228.212 236.918 228.638 236.586 228.638 236.179C228.638 235.772 229.064 235.44 229.584 235.44C230.104 235.44 231.01 234.775 231.596 233.961C232.183 233.148 233.088 232.483 233.609 232.483C234.128 232.483 234.554 232.15 234.554 231.744C234.554 231.337 234.932 231.004 235.392 231.004C235.853 231.004 236.768 230.42 237.426 229.706C238.084 228.992 239.538 227.937 240.656 227.363C241.774 226.789 242.69 226.043 242.69 225.705C242.69 225.367 243.189 225.091 243.799 225.091C244.41 225.091 244.909 224.758 244.909 224.351C244.909 223.945 245.335 223.612 245.855 223.612C246.375 223.612 247.281 222.947 247.867 222.134C248.454 221.321 249.359 220.655 249.88 220.655C250.4 220.655 250.826 220.323 250.826 219.916C250.826 219.51 251.252 219.177 251.772 219.177C252.292 219.177 253.198 218.512 253.784 217.698C254.371 216.885 255.276 216.22 255.797 216.22C256.316 216.22 256.742 215.887 256.742 215.481C256.742 215.074 257.075 214.742 257.481 214.742C257.886 214.742 259.387 213.64 260.814 212.294L263.41 209.847L263.219 162.591C263.036 117.195 262.975 115.325 261.653 115.071C259.43 114.643 243.673 120.109 235.664 124.087C231.596 126.106 228.101 127.962 227.898 128.209C227.695 128.455 225.948 129.481 224.015 130.487C222.083 131.492 220.502 132.566 220.502 132.871C220.502 133.177 220.145 133.427 219.708 133.427C218.847 133.427 204.8 142.826 202.381 145.021C201.568 145.759 199.737 147.24 198.313 148.313C196.89 149.384 195.021 150.881 194.16 151.639C193.299 152.396 191.491 153.848 190.141 154.864C187.5 156.853 185.36 158.858 174.523 169.499L167.522 176.372L163.427 172.456C149.907 159.531 143.756 154.07 136.955 148.95C135.604 147.934 133.465 146.185 132.2 145.064C129.758 142.899 115.002 132.908 110.434 130.326C100.849 124.91 90.0753 119.906 83.8605 117.986C74.4979 115.092 73.0165 114.758 72.3753 115.399ZM89.5931 135.644C89.5931 136.051 90.2588 136.384 91.0723 136.384C91.8859 136.384 92.5515 136.716 92.5515 137.123C92.5515 137.529 93.2171 137.862 94.0307 137.862C94.8443 137.862 95.5099 138.195 95.5099 138.601C95.5099 139.008 96.1755 139.341 96.9891 139.341C97.8027 139.341 98.4683 139.673 98.4683 140.08C98.4683 140.486 98.932 140.819 99.4986 140.819C100.065 140.819 100.731 141.345 100.978 141.988C101.225 142.632 101.427 159.286 101.427 179V214.842L99.023 213.164C97.7013 212.241 96.4529 211.288 96.2495 211.045C96.0461 210.803 94.7148 209.805 93.2911 208.828C91.8674 207.85 90.5361 206.869 90.3327 206.646C90.1293 206.423 89.2973 205.872 88.4837 205.421C87.0415 204.622 87.0001 203.733 86.8122 169.753C86.6221 135.278 86.6362 134.905 88.1065 134.905C88.9245 134.905 89.5931 135.238 89.5931 135.644ZM248.607 169.241V203.578L245.833 205.648C244.308 206.787 242.632 208.123 242.109 208.617C241.585 209.111 240.171 210.098 238.965 210.81C237.76 211.521 236.773 212.364 236.773 212.684C236.773 213.002 236.302 213.263 235.725 213.263C235.149 213.263 234.51 213.679 234.304 214.187C234.1 214.696 233.905 198.395 233.873 177.965C233.816 141.292 233.833 140.819 235.294 140.819C236.108 140.819 236.773 140.486 236.773 140.08C236.773 139.673 237.439 139.341 238.252 139.341C239.066 139.341 239.732 139.008 239.732 138.601C239.732 138.195 240.397 137.862 241.211 137.862C242.024 137.862 242.69 137.529 242.69 137.123C242.69 136.716 243.356 136.384 244.169 136.384C244.983 136.384 245.648 136.051 245.648 135.644C245.648 135.238 246.314 134.905 247.128 134.905C248.585 134.905 248.607 135.398 248.607 169.241ZM122.012 200.854C122.148 201.174 122.657 201.435 123.144 201.435C123.629 201.435 124.507 202.101 125.094 202.914C125.68 203.727 126.443 204.392 126.789 204.392C127.577 204.392 128.517 205.374 131.742 209.567C133.149 211.397 134.501 213.06 134.745 213.263C134.989 213.466 135.996 215.13 136.983 216.959C137.97 218.789 139.026 220.397 139.331 220.532C139.636 220.668 139.886 221.389 139.886 222.134C139.886 222.879 140.154 223.6 140.482 223.736C141.82 224.289 147.277 243.62 147.281 247.822C147.283 249.154 146.313 248.961 144.494 247.267C143.621 246.454 142.559 245.789 142.136 245.789C141.712 245.789 141.365 245.456 141.365 245.05C141.365 244.643 140.939 244.311 140.419 244.311C139.898 244.311 138.993 243.645 138.407 242.832C137.82 242.019 136.915 241.354 136.394 241.354C135.874 241.354 135.448 241.021 135.448 240.614C135.448 240.208 134.949 239.875 134.339 239.875C133.729 239.875 133.229 239.543 133.229 239.136C133.229 238.729 132.873 238.397 132.437 238.397C132.001 238.397 131.207 237.981 130.67 237.473C129.168 236.047 127.187 234.483 124.354 232.483C115.683 226.363 116.219 227.673 116.219 212.584C116.219 205.299 116.42 198.815 116.666 198.174C117.054 197.162 117.418 197.223 119.44 198.641C120.719 199.539 121.877 200.535 122.012 200.854ZM217.925 226.384C217.7 227.299 217.193 228.048 216.798 228.048C216.124 228.048 214.176 229.463 211.967 231.559C211.431 232.067 210.779 232.483 210.518 232.483C210.256 232.483 209.604 232.899 209.068 233.407C206.847 235.514 204.909 236.918 204.223 236.918C203.82 236.918 203.491 237.173 203.491 237.483C203.491 237.794 202.16 238.87 200.533 239.875C198.906 240.881 197.575 241.957 197.575 242.267C197.575 242.578 197.103 242.832 196.527 242.832C195.95 242.832 195.368 243.101 195.232 243.429C195.097 243.758 193.405 245.104 191.473 246.422L187.96 248.817V246.574C187.96 239.438 195.546 218.142 199.494 214.196C200.066 213.625 200.533 212.865 200.533 212.508C200.533 211.577 210.662 201.435 211.591 201.435C212.017 201.435 212.367 201.103 212.367 200.696C212.367 200.29 212.866 199.957 213.476 199.957C214.086 199.957 214.585 199.675 214.585 199.331C214.585 198.986 215.334 198.37 216.249 197.962L217.914 197.219L218.124 210.97C218.239 218.533 218.149 225.469 217.925 226.384Z" fill="black"/>
<path d="M50.9983 81.336L171.269 13.8294L198.404 30.9706L88.6478 90.3081L50.9983 81.336Z" fill="#3A71C3"/>
<path d="M212.996 184.241L218.241 182.252V152.652L208.274 157.626L204.34 160.611L196.209 166.83L186.505 175.536L178.112 184.241L167.621 195.683V262.345L174.44 257.371V238.131L175.751 232.497L178.112 226.527L179.948 222.298L182.046 217.572L184.144 213.344L186.505 208.867L189.652 204.141L193.849 199.166L197.783 195.683L201.717 192.201L204.34 189.962L208.274 187.475L212.996 184.241Z" fill="#3A71C3"/>
<path d="M122.246 184.241L117 182.252V152.652L126.967 157.626L130.901 160.611L139.032 166.83L148.736 175.536L157.129 184.241L167.621 195.683V262.345L160.801 257.371V238.131L159.49 232.497L157.129 226.527L155.293 222.298L153.195 217.572L151.097 213.344L148.736 208.867L145.589 204.141L141.392 199.166L137.458 195.683L133.524 192.201L130.901 189.962L126.967 187.475L122.246 184.241Z" fill="#3A71C3"/>
<path d="M248.65 203.599V168.783C248.65 149.635 248.537 133.995 248.4 134.028L233.65 141.513V177.811C233.65 197.775 233.9 214.11 234.205 214.11C234.51 214.11 237.885 211.745 241.705 208.854L248.65 203.599Z" fill="#37A5E4"/>
<path d="M86.5923 203.599V168.783C86.5923 149.635 86.7053 133.995 86.8423 134.028L101.592 141.513V177.811C101.592 197.775 101.342 214.11 101.037 214.11C100.732 214.11 97.3573 211.745 93.5373 208.854L86.5923 203.599Z" fill="#37A5E4"/>
<path d="M223.257 47.6191C220.289 45.8954 214.998 42.9365 211.502 41.0439C208.005 39.1523 204.983 37.6137 204.786 37.6258C204.194 37.6632 190.089 45.1488 189.534 45.7203C189.252 46.0117 186.016 47.789 182.344 49.6695C178.672 51.55 166.34 58.4873 166.34 58.4873L163.761 60.1513L174.85 65.9304C184.418 70.9153 199.793 80.4402 204.1 84.0494C204.846 84.6736 206.61 86.1211 208.023 87.2652C209.435 88.4093 213.409 92.0206 216.853 95.291C220.298 98.5614 224.782 102.374 225.291 101.943C228.745 99.0314 256.677 89.5902 273.174 85.9719C279.94 84.4879 286.482 81.7441 284.748 81.7441C287.173 81.7441 254.697 64.5961 242.945 58.5045C238.709 56.3074 234.016 53.6652 232.516 52.6324C231.016 51.5996 229.534 50.7539 229.223 50.7539C228.911 50.7539 226.227 49.3438 223.257 47.6191Z" fill="#37A5E4"/>
<path d="M208.112 107.01C199.583 97.8689 179.179 83.8985 162.304 75.6478C156.266 72.6962 148.445 69.6055 147.008 69.3415L127.899 79.8029L103.393 93.2302C100.029 94.983 97.4414 96.5616 97.6432 96.7379C97.845 96.9142 102.479 99.101 107.942 101.596C128.731 111.092 141.965 119.731 159.506 135.256L167.686 142.496L174.142 136.199C181.165 129.351 194.001 119.63 204.127 113.491L210.534 109.606L208.112 107.01Z" fill="#7EB8E6"/>
<path d="M219.03 227.103V211.885C219.03 203.294 218.611 196.668 218.067 196.668L209.682 202.681L204.088 208.036C198.813 214.067 193.063 224.357 190.758 231.892C188.572 239.04 186.95 250.062 188.084 250.062C188.433 250.062 192.372 247.274 196.835 243.867C201.297 240.459 208.117 235.293 211.99 232.387L219.03 227.103Z" fill="#7EB8E6"/>
<path d="M116.321 227.103V211.885C116.321 203.294 116.741 196.668 117.284 196.668L125.669 202.681L131.263 208.036C136.539 214.067 142.288 224.357 144.593 231.892C146.78 239.04 148.402 250.062 147.268 250.062C146.918 250.062 142.98 247.274 138.517 243.867C134.054 240.459 127.235 235.293 123.362 232.387L116.321 227.103Z" fill="#7EB8E6"/>
</svg>
