<svg width="34" height="35" viewBox="0 0 34 35" fill="none" xmlns="http://www.w3.org/2000/svg">
<path fill-rule="evenodd" clip-rule="evenodd" d="M19.0401 23.2233C20.9966 23.2233 22.5891 24.8044 22.5891 26.7479V31.7464C22.5891 32.164 22.9239 32.4988 23.3529 32.5085H26.4501C28.8909 32.5085 30.875 30.5488 30.875 28.1405V13.964C30.8636 13.1353 30.4688 12.3553 29.7911 11.8369L19.0775 3.29266C17.6394 2.15353 15.6276 2.15353 14.1846 3.29591L3.54413 11.8337C2.8405 12.3683 2.44563 13.1483 2.4375 13.9917V28.1405C2.4375 30.5488 4.42162 32.5085 6.86237 32.5085H9.98887C10.4292 32.5085 10.7867 32.1592 10.7867 31.7302C10.7867 31.6359 10.7981 31.5417 10.8176 31.4523V26.7479C10.8176 24.8158 12.4004 23.2363 14.3423 23.2233H19.0401ZM26.4501 34.946H23.3236C21.5329 34.9038 20.1516 33.4982 20.1516 31.7464V26.7479C20.1516 26.1483 19.6528 25.6608 19.0401 25.6608H14.3504C13.7508 25.664 13.2551 26.1532 13.2551 26.7479V31.7302C13.2551 31.852 13.2389 31.969 13.2048 32.0795C13.0293 33.6883 11.6545 34.946 9.98887 34.946H6.86237C3.07775 34.946 0 31.8927 0 28.1405V13.9803C0.01625 12.365 0.7605 10.8863 2.04588 9.91291L12.6652 1.38978C15.0036 -0.462718 18.2618 -0.462719 20.5953 1.38653L31.291 9.91778C32.5471 10.8749 33.2914 12.3504 33.3125 13.9462V28.1405C33.3125 31.8927 30.2348 34.946 26.4501 34.946Z" fill="#020202"/>
</svg>
