<svg width="30" height="36" viewBox="0 0 30 36" fill="none" xmlns="http://www.w3.org/2000/svg">
<path d="M26.4167 25.3333V25.4369L26.4899 25.5101L29.75 28.7702V30.0833H0.25V28.7702L3.51011 25.5101L3.58333 25.4369V25.3333V15.3333C3.58333 10.2772 6.84408 5.87443 11.7385 4.4061L11.9167 4.35265V4.16665V3.66665C11.9167 1.97138 13.3047 0.583313 15 0.583313C15.8472 0.583313 16.6897 0.973369 17.1715 1.49597C15.9287 2.94189 14.9855 4.69461 14.7714 6.75284C10.0759 6.87053 6.41667 10.6051 6.41667 15.3333V27V27.25H6.66667H23.3333H23.5833V27V17.25H24.1667C24.9257 17.25 25.6813 17.1164 26.4167 16.9713V25.3333ZM15 35.0833C13.3889 35.0833 12.0552 33.8296 11.9268 32.25H18.0732C17.9448 33.8296 16.6111 35.0833 15 35.0833ZM29.75 7.83331C29.75 10.8619 27.1953 13.4166 24.1667 13.4166C21.1381 13.4166 18.5833 10.8619 18.5833 7.83331C18.5833 4.80472 21.1381 2.24998 24.1667 2.24998C27.1953 2.24998 29.75 4.80472 29.75 7.83331Z" fill="black" stroke="white" stroke-width="0.5"/>
</svg>
