<svg width="43" height="41" viewBox="0 0 43 41" fill="none" xmlns="http://www.w3.org/2000/svg">
<path d="M13.7066 13.9439L13.879 14.0012L21.0748 16.3918L21.075 16.3919C21.3509 16.4839 21.6491 16.4839 21.925 16.3919L21.9252 16.3918L29.121 14.0012L29.2932 13.944L29.401 14.0901C30.6435 15.7746 31.3135 17.8131 31.3125 19.9063L13.7066 13.9439ZM13.7066 13.9439L13.5989 14.0902M13.7066 13.9439L13.5989 14.0902M13.5989 14.0902C12.679 15.3394 12.0683 16.7888 11.8171 18.3196C11.5658 19.8504 11.6811 21.419 12.1534 22.8967C12.6258 24.3743 13.4417 25.7189 14.5343 26.8202C15.627 27.9214 16.9651 28.7479 18.439 29.2318C19.9129 29.7157 21.4805 29.8433 23.0133 29.6041C24.546 29.3648 26.0002 28.7656 27.2565 27.8555C28.5128 26.9454 29.5355 25.7505 30.2405 24.3686C30.9455 22.9868 31.3129 21.4576 31.3125 19.9064L13.5989 14.0902ZM21.925 1.10009L22.004 0.863019L21.925 1.1001L40.879 7.41811V7.42812L41.05 7.48507C41.3176 7.57422 41.5504 7.74532 41.7154 7.97414C41.8803 8.20295 41.9691 8.47788 41.9691 8.75996C41.9691 9.04204 41.8803 9.31696 41.7154 9.54578C41.5504 9.77459 41.3176 9.94569 41.05 10.0348L41.129 10.272L41.05 10.0348L32.2605 12.9634L31.9607 13.0632L32.1268 13.332C33.8668 16.1472 34.4193 19.5375 33.6632 22.7595C32.9072 25.9815 30.9042 28.7721 28.0936 30.5195L27.671 30.7822L28.1341 30.9644C31.657 32.3508 34.7281 34.8596 36.9681 38.2956C37.156 38.5938 37.2193 38.9539 37.1442 39.2983C37.069 39.6433 36.8611 39.9448 36.5654 40.1377C36.2697 40.3305 35.9099 40.3993 35.5639 40.329C35.2185 40.2589 34.9146 40.0559 34.7174 39.7638C31.6714 35.0917 26.8536 32.4062 21.5 32.4062C16.1458 32.4062 11.3275 35.0923 8.28156 39.7653L8.27969 39.7683C8.18454 39.9188 8.06043 40.0489 7.91455 40.1511C7.76868 40.2532 7.60396 40.3253 7.42996 40.3633C7.25596 40.4012 7.07616 40.4042 6.90101 40.372C6.72586 40.3398 6.55885 40.2731 6.40969 40.1758C6.26054 40.0786 6.1322 39.9526 6.03216 39.8053C5.93211 39.658 5.86234 39.4922 5.82691 39.3177C5.79148 39.1432 5.79109 38.9634 5.82577 38.7887C5.86044 38.614 5.92949 38.448 6.02893 38.3002L6.03092 38.2972C8.27113 34.8601 11.3307 32.351 14.8657 30.9645L15.3298 30.7825L14.9063 30.5194C12.093 28.772 10.0881 25.9795 9.33194 22.7552C8.57575 19.5308 9.13003 16.1382 10.8731 13.3222L11.0395 13.0533L10.7395 12.9534L4.04776 10.7241L3.71875 10.6145V10.9613V24.6875C3.71875 25.0439 3.57718 25.3857 3.32517 25.6377C3.07317 25.8897 2.73138 26.0312 2.375 26.0312C2.01862 26.0312 1.67683 25.8897 1.42482 25.6377C1.17282 25.3857 1.03125 25.0439 1.03125 24.6875V8.75V8.74998C1.03123 8.46794 1.11995 8.19304 1.28485 7.96423C1.44976 7.73542 1.68247 7.56429 1.95003 7.4751C1.95004 7.4751 1.95004 7.47509 1.95004 7.47509L21.075 1.1001L20.996 0.863019L21.075 1.10009C21.3509 1.00814 21.6491 1.00814 21.925 1.10009ZM21.4209 13.6827L21.5 13.7091L21.5791 13.6827L35.6638 8.98716L36.3752 8.75L35.6638 8.51283L21.5791 3.81724L21.5 3.79088L21.4209 3.81724L7.33617 8.51283L6.62477 8.75L7.33617 8.98716L21.4209 13.6827Z" fill="black" stroke="white" stroke-width="0.5"/>
</svg>
