<svg width="40" height="38" viewBox="0 0 40 38" fill="none" xmlns="http://www.w3.org/2000/svg">
<path d="M28.3332 33.25V30.0833C28.3332 28.4036 27.6308 26.7927 26.3805 25.605C25.1303 24.4173 23.4346 23.75 21.6665 23.75H8.33317C6.56506 23.75 4.86937 24.4173 3.61913 25.605C2.36888 26.7927 1.6665 28.4036 1.6665 30.0833V33.25" stroke="black" stroke-width="2.5" stroke-linecap="round" stroke-linejoin="round"/>
<path d="M15.0002 17.4167C18.6821 17.4167 21.6668 14.5811 21.6668 11.0833C21.6668 7.58553 18.6821 4.75 15.0002 4.75C11.3183 4.75 8.3335 7.58553 8.3335 11.0833C8.3335 14.5811 11.3183 17.4167 15.0002 17.4167Z" stroke="black" stroke-width="2.5" stroke-linecap="round" stroke-linejoin="round"/>
<path d="M38.3335 33.25V30.0833C38.3324 28.68 37.8408 27.3169 36.9358 26.2078C36.0308 25.0988 34.7637 24.3066 33.3335 23.9558" stroke="black" stroke-width="2.5" stroke-linecap="round" stroke-linejoin="round"/>
<path d="M26.6665 4.95581C28.1005 5.30462 29.3716 6.09692 30.2792 7.2078C31.1869 8.31868 31.6796 9.68496 31.6796 11.0912C31.6796 12.4975 31.1869 13.8638 30.2792 14.9747C29.3716 16.0855 28.1005 16.8778 26.6665 17.2266" stroke="black" stroke-width="2.5" stroke-linecap="round" stroke-linejoin="round"/>
</svg>
